<svg width="100" height="102" fill="none" xmlns="http://www.w3.org/2000/svg"><path d="M54.221 4s-6.195 3.247-7.51 10.202c-8.94.017-18.257.117-24.091.278-3.378.094-6.65 1.117-9.217 3.317C9.12 21.467 4.055 26.814 4 28.56v3.945c0 5 4.671 9.396 8.913 9.396 5.093 0 9.337-4.224 9.337-9.237 0 5.013 4.098 9.237 9.192 9.237s9.06-4.224 9.06-9.237c0 5.013 4.358 9.237 9.451 9.237L50 41.9h.048c5.093 0 9.45-4.223 9.45-9.236 0 5.013 3.967 9.237 9.061 9.237 5.094 0 9.191-4.224 9.191-9.237 0 5.013 4.245 9.237 9.338 9.237 4.242 0 8.913-4.395 8.913-9.396V28.56c-.053-1.684-4.76-6.71-8.934-10.359-2.843-2.484-6.538-3.572-10.311-3.685-8.09-.244-13.883-.308-23.094-.318.399-5.124 4.934-6.11 4.934-6.11s-2.533-.173-3.454-.864C53.318 5.857 54.221 4 54.221 4zM40.44 39.546a10.515 10.515 0 0 1-1.793 2.309 10.644 10.644 0 0 1-7.463 3.047 10.678 10.678 0 0 1-7.48-3.048c-.697-.682-1.226-1.413-1.71-2.263l-.003.002c-.485.852-1.16 1.58-1.858 2.264a10.682 10.682 0 0 1-7.479 3.046c-.35 0-.715-.097-1.01-.198-.41 4.266-.581 8.343-.643 11.316l-.001.017c-.008 1.51-.015 2.751-.022 4.476.057 6.533.333 17.26 2.355 24.496 1.228 4.393 5.389 6.792 9.806 7.924C30.37 94.79 39.776 96.996 49.998 97h.003c10.217-.004 19.563-2.207 26.767-4.062 4.416-1.136 8.576-3.533 9.82-7.922 2.052-7.235 2.378-17.968 2.435-24.502-.007-1.725-.014-2.966-.022-4.476v-.017c-.062-2.974-.235-7.05-.644-11.316-.295.101-.659.198-1.01.198a10.684 10.684 0 0 1-7.48-3.046c-.697-.684-1.372-1.412-1.857-2.264l-.002-.002c-.485.85-1.014 1.58-1.711 2.263a10.676 10.676 0 0 1-7.48 3.048c-2.904 0-5.54-1.166-7.463-3.047a10.518 10.518 0 0 1-1.792-2.31 10.496 10.496 0 0 1-1.776 2.31 10.68 10.68 0 0 1-7.48 3.048c-.102 0-.203-.005-.305-.008H50c-.102.003-.203.008-.305.008a10.678 10.678 0 0 1-7.48-3.048 10.5 10.5 0 0 1-1.775-2.31zm-10.54 9.92c.592-1.337 2.183-1.75 3.585-1.335l10.571 3.124a7.923 7.923 0 0 1-.235 3.374 7.97 7.97 0 0 1-.405 1.055 4.106 4.106 0 0 0-1.313-.67 4.104 4.104 0 0 0-5.077 5.162 7.214 7.214 0 0 1-2.519-.273c-3.94-1.164-6.157-5.413-4.954-9.49.096-.324.212-.64.348-.946zm34.715-.574c1.55-.156 3.123.66 3.334 2.206.011.086.022.172.03.259.425 4.23-2.544 7.993-6.631 8.404-.02 0-.04.002-.059.003a4.104 4.104 0 0 0-4.062-5.952 4.104 4.104 0 0 0-3.126 2.011 7.93 7.93 0 0 1-.923-2.979 7.938 7.938 0 0 1 .225-2.826l11.212-1.126zM48.96 60.157h.001v.001s5.682 3.72 6.702 5.575l-3.717 1.352v3.243c0 .152-1.492.09-2.985.021h-.001c-1.493.069-2.985.13-2.985-.021v-3.243l-3.717-1.352c1.02-1.855 6.696-5.57 6.702-5.575v-.001zm30.11 6.113s-2.863 13.374-15.526 21.852l.04-4.38c-3.014 1.97-5.922 2.53-8.721 1.918v6.022c-1.63.308-3.36.466-5.206.44-24.623-.341-28.727-25.168-28.727-25.168 4.338 4.296 8.517 2.598 12.51 4.885l.058 5.484c5.33-3.633 5.387 1.028 8.123 1.028v-2.927C63.585 80.715 79.07 66.27 79.07 66.27z" fill="#fff"/></svg>