<svg width="786" height="248" fill="none" xmlns="http://www.w3.org/2000/svg"><g clip-path="url(#clip0)" fill="#fff"><path d="M264.951 211.334V108.163h34.811v103.171h-34.811zm17.611-111.561c-5.872 0-10.416-1.468-13.631-4.404-3.076-2.935-4.614-6.85-4.614-11.743 0-4.614 1.538-8.528 4.613-11.743 3.216-3.216 7.759-4.823 13.631-4.823s10.346 1.607 13.422 4.823c3.215 3.215 4.823 7.13 4.823 11.743 0 4.893-1.608 8.808-4.823 11.743-3.076 2.936-7.549 4.404-13.42 4.404h-.001zm69.136 113.661c-10.067 0-17.687-2.657-22.86-7.97-5.032-5.452-7.548-13.001-7.548-22.648v-48.86h-13.84v-25.795h13.84V82.997h34.81v25.166h22.65v25.79h-22.652v43.828c0 3.216.629 5.523 1.888 6.92 1.398 1.259 3.495 1.888 6.29 1.888 3.775 0 7.9-1.677 12.373-5.033l7.97 22.859c-4.053 2.8-8.667 5.036-13.84 6.71-5.173 1.54-11.533 2.31-19.08 2.31l-.001-.001zm85.62 0c-15.938 0-28.52-4.544-37.747-13.631-9.087-9.088-13.63-22.299-13.63-39.635 0-12.582 2.586-23.137 7.758-31.665 5.314-8.807 11.957-14.748 19.93-17.825 8.387-3.215 16.147-4.823 23.28-4.823 8.947 0 16.427 1.817 22.441 5.452 6.013 3.495 10.416 7.34 13.21 11.534 2.94 4.193 5.036 7.479 6.29 9.856l-24.11 15.518c-2.234-4.613-4.681-8.248-7.341-10.905-2.653-2.656-5.866-3.984-9.64-3.984-5.313 0-9.506 2.097-12.58 6.29-3.073 4.195-4.61 10.556-4.61 19.084 0 9.227 1.817 16.007 5.45 20.34 3.634 4.335 8.807 6.502 15.52 6.502 5.314 0 9.717-.98 13.211-2.94 3.633-1.96 7.059-4.476 10.277-7.55l11.115 26c-3.356 2.794-8.32 5.591-14.89 8.391-6.571 2.653-14.54 3.98-23.907 3.98l-.027.011zm50.651-2.1V71.253h35.02v42.57c2.935-2.097 6.5-3.915 10.694-5.452 4.193-1.678 9.227-2.517 15.1-2.517 12.302 0 21.459 3.497 27.47 10.49 6.152 6.993 9.227 16.85 9.227 29.57v65.431h-35.02v-61.241c0-5.866-1.117-10.13-3.35-12.79-2.233-2.793-5.17-4.19-8.81-4.19-3.073 0-5.94.7-8.6 2.1-2.653 1.4-4.89 2.87-6.71 4.41v71.721h-35.02l-.001-.021zm124.4 2.1c-5.593 0-9.997-1.608-13.212-4.823-3.215-3.216-4.823-7.34-4.823-12.373 0-5.033 1.608-9.227 4.823-12.582 3.216-3.355 7.619-5.033 13.21-5.033 5.314 0 9.578 1.678 12.793 5.033 3.22 3.356 4.83 7.55 4.83 12.582 0 5.034-1.606 9.158-4.82 12.373-3.073 3.215-7.336 4.823-12.79 4.823h-.011zm25.751-2.1V108.163h34.81v103.171h-34.81zm17.61-111.541c-5.874 0-10.418-1.468-13.632-4.404-3.076-2.936-4.613-6.85-4.613-11.743 0-4.614 1.537-8.528 4.613-11.743 3.215-3.216 7.758-4.823 13.63-4.823 5.872 0 10.346 1.607 13.422 4.823 3.215 3.215 4.823 7.13 4.823 11.743 0 4.893-1.608 8.808-4.823 11.743-3.076 2.936-7.549 4.404-13.42 4.404zm78.67 113.641c-8.109 0-15.309-1.328-21.6-3.984-6.291-2.796-11.674-6.571-16.147-11.325-4.334-4.893-7.689-10.625-10.066-17.196-2.237-6.71-3.355-13.98-3.355-21.81 0-11.602 2.516-21.738 7.55-30.406 5.172-8.528 11.603-14.47 19.292-17.825 7.829-3.355 15.937-5.033 24.325-5.033 12.02 0 21.943 2.796 29.77 8.388 7.967 5.592 13.56 12.582 16.78 20.97 3.214 8.388 4.82 16.357 4.82 23.906 0 7.829-1.19 15.099-3.57 21.81-2.233 6.57-5.59 12.302-10.07 17.195-4.333 4.754-9.716 8.531-16.15 11.331-6.29 2.66-13.49 3.99-21.6 3.99l.021-.011zm0-26.843c5.871 0 10.135-2.446 12.79-7.34 2.657-5.033 3.985-11.743 3.985-20.13 0-7.969-1.398-14.33-4.194-19.084-2.793-4.753-6.987-7.13-12.58-7.13-5.453 0-9.577 2.377-12.37 7.13-2.793 4.754-4.19 11.115-4.19 19.083 0 8.388 1.33 15.098 3.99 20.13 2.8 4.894 6.993 7.34 12.58 7.34l-.011.001zM131.843 9.782s-15.18 7.94-18.402 24.95c-21.903.04-44.728.286-59.022.68-8.277.229-16.294 2.73-22.582 8.11C21.345 52.5 8.936 65.576 8.8 69.847v9.648c0 12.23 11.445 22.979 21.837 22.979 12.478 0 22.876-10.33 22.877-22.588 0 12.257 10.038 22.588 22.519 22.588 12.48 0 22.197-10.33 22.197-22.588 0 12.257 10.677 22.588 23.156 22.588l.111-.002h.006l.111.002c12.479 0 23.156-10.33 23.156-22.588 0 12.257 9.718 22.588 22.197 22.588 12.48 0 22.519-10.33 22.519-22.588.001 12.257 10.399 22.588 22.877 22.588 10.393 0 21.837-10.748 21.837-22.979v-9.648c-.131-4.117-11.662-16.41-21.889-25.331-6.965-6.076-16.018-8.736-25.262-9.014-19.819-.596-34.013-.752-56.58-.776.978-12.53 12.089-14.944 12.089-14.944s-6.205-.422-8.462-2.112c-4.467-3.346-2.257-7.886-2.257-7.886h.004zm-33.766 86.93a25.696 25.696 0 0 1-4.392 5.645c-4.71 4.601-11.166 7.453-18.284 7.453a26.184 26.184 0 0 1-18.326-7.454c-1.707-1.669-3.003-3.456-4.191-5.533l-.006.003c-1.188 2.083-2.84 3.865-4.551 5.537a26.198 26.198 0 0 1-18.324 7.45c-.859 0-1.753-.238-2.474-.485-1.004 10.433-1.425 20.402-1.576 27.673l-.003.043c-.02 3.691-.036 6.727-.054 10.945.14 15.976.815 42.213 5.77 59.908 3.009 10.743 13.203 16.608 24.023 19.378 17.72 4.537 40.761 9.934 65.81 9.943h.006c25.032-.009 47.93-5.398 65.579-9.933 10.819-2.78 21.011-8.64 24.059-19.373 5.027-17.696 5.825-43.942 5.966-59.923-.018-4.217-.034-7.254-.054-10.945l-.001-.043c-.151-7.271-.574-17.24-1.577-27.673-.722.247-1.614.485-2.473.485a26.2 26.2 0 0 1-18.325-7.45c-1.711-1.672-3.364-3.454-4.552-5.537l-.006-.003c-1.188 2.078-2.484 3.864-4.191 5.533a26.18 26.18 0 0 1-18.324 7.454 26.107 26.107 0 0 1-18.286-7.453 25.701 25.701 0 0 1-4.392-5.646 25.681 25.681 0 0 1-4.349 5.646 26.19 26.19 0 0 1-18.327 7.455c-.251 0-.498-.013-.747-.02h-.005c-.249.007-.496.02-.747.02a26.187 26.187 0 0 1-18.325-7.455 25.69 25.69 0 0 1-4.351-5.646zm-25.82 24.261c1.448-3.272 5.346-4.279 8.78-3.266l25.901 7.64a19.344 19.344 0 0 1-.578 8.251 19.344 19.344 0 0 1-.99 2.579 10.044 10.044 0 0 0-3.217-1.638c-5.326-1.572-10.919 1.465-12.493 6.784a10.027 10.027 0 0 0 .054 5.839 17.696 17.696 0 0 1-6.17-.666c-9.653-2.847-15.087-13.238-12.14-23.21.236-.791.52-1.563.853-2.313zm85.049-1.406c3.799-.381 7.653 1.617 8.168 5.395.029.211.054.422.076.634 1.04 10.345-6.234 19.547-16.248 20.552l-.143.007a10.025 10.025 0 0 0 1.058-5.565c-.554-5.52-5.484-9.545-11.01-8.99a10.058 10.058 0 0 0-7.66 4.918 19.364 19.364 0 0 1-2.262-7.285 19.38 19.38 0 0 1 .553-6.911l27.468-2.755zm-38.353 27.549l.004.002v.001s13.92 9.099 16.42 13.634l-9.107 3.306v7.931c0 .371-3.655.22-7.313.052h-.003c-3.658.168-7.312.319-7.312-.052v-7.931l-9.107-3.306c2.5-4.536 16.406-13.621 16.419-13.634l-.001-.003zm73.769 14.951s-7.012 32.707-38.038 53.44l.099-10.71c-7.384 4.814-14.509 6.185-21.367 4.69v14.724c-3.99.755-8.233 1.142-12.753 1.079-60.328-.837-70.382-61.552-70.382-61.552 10.628 10.508 20.867 6.355 30.65 11.946l.141 13.414c13.06-8.886 13.198 2.512 19.901 2.512v-7.157c53.81 12.94 91.749-22.386 91.749-22.386z"/></g><defs><clipPath id="clip0"><path fill="#fff" d="M0 0h785.77v247.91H0z"/></clipPath></defs></svg>