<?xml version="1.0" encoding="utf-8"?>
<!-- Generator: Adobe Illustrator 22.0.1, SVG Export Plug-In . SVG Version: 6.00 Build 0)  -->
<!DOCTYPE svg PUBLIC "-//W3C//DTD SVG 1.1//EN" "http://www.w3.org/Graphics/SVG/1.1/DTD/svg11.dtd">
<svg version="1.1" id="Layer_1" xmlns="http://www.w3.org/2000/svg" xmlns:xlink="http://www.w3.org/1999/xlink" x="0px" y="0px"
	 viewBox="0 0 332.5 247.1" style="enable-background:new 0 0 332.5 247.1;" xml:space="preserve">
<style type="text/css">
	.st0{fill:#FFFFFF;}
</style>
<g>
	<g>
		<path class="st0" d="M215.6,118.4L215.6,118.4L215.6,118.4L215.6,118.4L215.6,118.4c0,0-19.7,18.1-23.2,24.5l12.9-0.5v11.2
			c0,0.5,5.2,0.3,10.3,0.1h0c5.2,0.2,10.3,0.5,10.3-0.1v-11.2l12.9,0.5C235.3,136.5,215.6,118.4,215.6,118.4z"/>
	</g>
	<g>
		<g>
			<path class="st0" d="M122,107.1c0.8,0.9,1.6,1.9,2.4,2.9C123.6,109,122.8,108,122,107.1L122,107.1z"/>
		</g>
		<g>
			<path class="st0" d="M176.5,190.4c0,0.2,0,0.3,0,0.5C176.5,190.8,176.5,190.6,176.5,190.4z"/>
		</g>
		<g>
			<path class="st0" d="M174.9,182.4C174.9,182.4,175,182.5,174.9,182.4C175,182.5,174.9,182.4,174.9,182.4z"/>
		</g>
		<g>
			<path class="st0" d="M176.4,189.3c0,0.2,0,0.3,0,0.5C176.5,189.6,176.4,189.5,176.4,189.3z"/>
		</g>
		<g>
			<path class="st0" d="M128.9,116.1c-1.3-2-2.7-3.9-4.2-5.8C126.1,112.2,127.6,114.2,128.9,116.1z"/>
		</g>
		<g>
			<path class="st0" d="M135.3,127.4c0.1,0,0.1,0,0.2-0.1C135.4,127.3,135.3,127.3,135.3,127.4z"/>
		</g>
		<g>
			<path class="st0" d="M131.1,119.6c-0.6-1-1.2-1.9-1.8-2.9C129.9,117.7,130.5,118.6,131.1,119.6z"/>
		</g>
		<g>
			<path class="st0" d="M175.5,183.5c0,0.1,0,0.2,0.1,0.2C175.5,183.6,175.5,183.5,175.5,183.5z"/>
		</g>
		<g>
			<path class="st0" d="M175.7,184c0,0.1,0,0.2,0.1,0.3C175.7,184.2,175.7,184.1,175.7,184z"/>
		</g>
		<g>
			<path class="st0" d="M135.8,127.2c0.1,0,0.1,0,0.2-0.1C135.9,127.2,135.8,127.2,135.8,127.2z"/>
		</g>
		<g>
			<path class="st0" d="M175.8,184.7c0,0.1,0,0.2,0.1,0.3C175.9,184.9,175.8,184.8,175.8,184.7z"/>
		</g>
		<g>
			<path class="st0" d="M176,185.5c0,0.1,0,0.2,0.1,0.4C176,185.7,176,185.6,176,185.5z"/>
		</g>
		<g>
			<path class="st0" d="M176.2,187.3c0,0.1,0,0.3,0,0.4C176.2,187.6,176.2,187.4,176.2,187.3z"/>
		</g>
		<g>
			<path class="st0" d="M176.1,186.3c0,0.1,0,0.3,0.1,0.4C176.1,186.6,176.1,186.5,176.1,186.3z"/>
		</g>
		<g>
			<path class="st0" d="M175.3,183c0,0.1,0,0.1,0.1,0.2C175.4,183.1,175.3,183,175.3,183z"/>
		</g>
		<g>
			<path class="st0" d="M176.3,188.3c0,0.1,0,0.3,0,0.4C176.4,188.6,176.3,188.4,176.3,188.3z"/>
		</g>
		<g>
			<path class="st0" d="M139.5,126.2c0.1,0,0.1,0,0.2,0C139.7,126.2,139.6,126.2,139.5,126.2z"/>
		</g>
		<g>
			<path class="st0" d="M140.1,126.2c-0.1,0-0.2,0-0.2,0C140,126.2,140.1,126.2,140.1,126.2z"/>
		</g>
		<g>
			<path class="st0" d="M139.2,126.3c0.1,0,0.1,0,0.2,0C139.3,126.3,139.2,126.3,139.2,126.3z"/>
		</g>
		<g>
			<path class="st0" d="M138.8,126.3c0.1,0,0.1,0,0.2,0C139,126.3,138.9,126.3,138.8,126.3z"/>
		</g>
		<g>
			<path class="st0" d="M140.5,126.2C140.5,126.2,140.5,126.2,140.5,126.2c-0.1,0-0.2,0-0.2,0C140.4,126.2,140.5,126.2,140.5,126.2z
				"/>
		</g>
		<g>
			<path class="st0" d="M136.3,127.1c0.1,0,0.1,0,0.2-0.1C136.4,127,136.3,127,136.3,127.1z"/>
		</g>
		<g>
			<polygon class="st0" points="141.3,126.2 141.3,126.2 141.3,126.2 			"/>
		</g>
		<g>
			<g>
				<path class="st0" d="M125.5,81.1c-1,0-1.9,0-2.9-0.1c0,0,0,0,0,0c0.7,0.1,1.4,0.1,2.1,0.1C125,81.2,125.3,81.2,125.5,81.1z"/>
			</g>
			<g>
				<path class="st0" d="M134.8,79.4c-2.9,1-5.9,1.6-8.9,1.7C129,81,131.9,80.4,134.8,79.4C134.8,79.4,134.8,79.4,134.8,79.4z"/>
			</g>
			<g>
				<path class="st0" d="M130.2,85.7c-1.8,0.3-3.6,0.5-5.4,0.5c-0.8,0-1.5,0-2.3-0.1c-0.1,4.7-0.2,9.5-0.3,13.8
					c2.7,2.7,5.3,5.7,7.7,8.9c-0.2-0.9-0.3-1.8-0.4-2.7c-0.9-6.3-1.7-13.1,0.5-19.7C130,86.2,130.1,85.9,130.2,85.7z"/>
			</g>
		</g>
		<g>
			<path class="st0" d="M137.2,126.8c0.1,0,0.1,0,0.2-0.1C137.3,126.7,137.2,126.8,137.2,126.8z"/>
		</g>
		<g>
			<path class="st0" d="M137.5,126.7c0.1,0,0.1,0,0.2-0.1C137.6,126.6,137.6,126.6,137.5,126.7z"/>
		</g>
		<g>
			<path class="st0" d="M136.7,126.9c0.1,0,0.1,0,0.2-0.1C136.8,126.9,136.7,126.9,136.7,126.9z"/>
		</g>
		<g>
			<path class="st0" d="M138.1,126.5c0.1,0,0.2,0,0.2-0.1C138.3,126.4,138.2,126.4,138.1,126.5z"/>
		</g>
		<g>
			<path class="st0" d="M137.8,126.6c0.1,0,0.1,0,0.2-0.1C137.9,126.5,137.9,126.5,137.8,126.6z"/>
		</g>
		<g>
			<path class="st0" d="M138.4,126.4c0.1,0,0.2,0,0.3-0.1C138.6,126.4,138.5,126.4,138.4,126.4z"/>
		</g>
		<g>
			<path class="st0" d="M139.9,82.7c-0.1,0-0.2,0-0.3,0C139.7,82.7,139.8,82.7,139.9,82.7z"/>
		</g>
		<g>
			<path class="st0" d="M145.4,84.5c-0.2-0.1-0.4-0.3-0.6-0.4C145,84.3,145.2,84.4,145.4,84.5z"/>
		</g>
		<g>
			<path class="st0" d="M144.5,83.9c-0.2-0.1-0.3-0.2-0.5-0.3C144.1,83.7,144.3,83.8,144.5,83.9z"/>
		</g>
		<g>
			<path class="st0" d="M175.1,182.6c0,0,0,0.1,0.1,0.1C175.2,182.7,175.1,182.7,175.1,182.6z"/>
		</g>
		<g>
			<path class="st0" d="M142,82.8c-0.3-0.1-0.5-0.1-0.8-0.1C141.5,82.7,141.8,82.7,142,82.8z"/>
		</g>
		<g>
			<path class="st0" d="M143.7,83.4c-0.2-0.1-0.4-0.2-0.5-0.3C143.3,83.2,143.5,83.3,143.7,83.4z"/>
		</g>
		<g>
			<path class="st0" d="M140.5,82.6c0.2,0,0.4,0,0.5,0c-0.1,0-0.3,0-0.4,0C140.6,82.6,140.5,82.6,140.5,82.6z"/>
		</g>
		<g>
			<path class="st0" d="M142.8,83c-0.2-0.1-0.4-0.2-0.7-0.2C142.4,82.9,142.6,83,142.8,83z"/>
		</g>
		<g>
			<path class="st0" d="M138.8,82.9c-0.1,0-0.1,0.1-0.2,0.1C138.7,83,138.7,83,138.8,82.9z"/>
		</g>
		<g>
			<path class="st0" d="M136.5,84.6c-0.1,0.1-0.2,0.2-0.3,0.3C136.3,84.8,136.4,84.7,136.5,84.6z"/>
		</g>
		<g>
			<path class="st0" d="M135.9,85.4c-0.1,0.1-0.2,0.2-0.2,0.4C135.7,85.7,135.8,85.5,135.9,85.4z"/>
		</g>
		<g>
			<path class="st0" d="M138,83.3c-0.1,0.1-0.2,0.1-0.3,0.2C137.8,83.4,137.9,83.4,138,83.3z"/>
		</g>
		<g>
			<path class="st0" d="M136.9,84.1c0.1-0.1,0.2-0.2,0.3-0.3C137.1,83.9,137,84,136.9,84.1z"/>
		</g>
		<g>
			<path class="st0" d="M135.3,86.5c-0.1,0.1-0.1,0.2-0.2,0.3C135.2,86.7,135.2,86.6,135.3,86.5z"/>
		</g>
		<g>
			<path class="st0" d="M159.6,103.2c-2-4-4.5-7.8-7.4-11.4C155.1,95.4,157.6,99.2,159.6,103.2z"/>
		</g>
		<g>
			<path class="st0" d="M146.5,85.5c-0.3-0.3-0.5-0.5-0.8-0.7C145.9,85,146.2,85.2,146.5,85.5z"/>
		</g>
		<g>
			<path class="st0" d="M152,91.6c-0.5-0.6-1.1-1.3-1.6-1.9C150.9,90.3,151.5,90.9,152,91.6z"/>
		</g>
		<g>
			<path class="st0" d="M176.9,197c0-0.2,0-0.4,0-0.6C176.9,196.6,176.9,196.8,176.9,197z"/>
		</g>
		<g>
			<path class="st0" d="M176.9,198.3c0-0.2,0-0.4,0-0.7C176.9,197.8,176.9,198,176.9,198.3z"/>
		</g>
		<g>
			<path class="st0" d="M176.7,194c0,0.2,0,0.4,0,0.6C176.8,194.3,176.8,194.2,176.7,194z"/>
		</g>
		<g>
			<path class="st0" d="M177,202.1c0,3.7-0.1,6.9-0.2,8.3l0,0C176.9,209,177,205.8,177,202.1z"/>
		</g>
		<g>
			<path class="st0" d="M176.6,192.1c0-0.2,0-0.4,0-0.5C176.6,191.8,176.6,191.9,176.6,192.1z"/>
		</g>
		<g>
			<path class="st0" d="M176.7,192.8c0,0.2,0,0.4,0,0.6C176.7,193.1,176.7,192.9,176.7,192.8z"/>
		</g>
		<g>
			<path class="st0" d="M176.8,195.8c0-0.2,0-0.4,0-0.6C176.8,195.4,176.8,195.6,176.8,195.8z"/>
		</g>
		<g>
			<path class="st0" d="M186.8,164.8c0-0.8-0.1-1.5-0.2-2.3l0,0C186.7,163.3,186.8,164,186.8,164.8z"/>
		</g>
		<g>
			<path class="st0" d="M186.8,164.9c0,0.7,0.1,1.5,0.1,2.2C186.9,166.4,186.9,165.6,186.8,164.9z"/>
		</g>
		<g>
			<path class="st0" d="M149.7,88.9c-0.4-0.5-0.8-0.9-1.2-1.4C148.9,88,149.3,88.5,149.7,88.9z"/>
		</g>
		<g>
			<path class="st0" d="M177,200.7c0-0.3,0-0.5,0-0.8C176.9,200.2,177,200.5,177,200.7z"/>
		</g>
		<g>
			<path class="st0" d="M177,201.9c0-0.3,0-0.6,0-0.8C177,201.4,177,201.6,177,201.9z"/>
		</g>
		<g>
			<path class="st0" d="M176.9,199.5c0-0.2,0-0.5,0-0.7C176.9,199,176.9,199.3,176.9,199.5z"/>
		</g>
		<g>
			<g>
				<path class="st0" d="M210.1,85.5c0.4,0.1,0.8,0.1,1.1,0.2C210.9,85.6,210.5,85.5,210.1,85.5z"/>
			</g>
			<g>
				<path class="st0" d="M211.8,85.7c0.3,0,0.7,0.1,1,0.1C212.4,85.7,212.1,85.7,211.8,85.7z"/>
			</g>
			<g>
				<path class="st0" d="M205.9,84.4c0.3,0.1,0.5,0.2,0.8,0.3C206.5,84.6,206.2,84.5,205.9,84.4z"/>
			</g>
			<g>
				<path class="st0" d="M204.7,84c0.3,0.1,0.5,0.2,0.8,0.3C205.2,84.2,205,84.1,204.7,84z"/>
			</g>
			<g>
				<path class="st0" d="M207.2,84.8c0.3,0.1,0.6,0.2,0.9,0.2C207.8,85,207.5,84.9,207.2,84.8z"/>
			</g>
			<g>
				<path class="st0" d="M213.3,85.8c0.3,0,0.7,0,1,0C214,85.8,213.7,85.8,213.3,85.8z"/>
			</g>
			<g>
				<path class="st0" d="M194.8,78.3c0.1,0,0.3,0.1,0.4,0.1C195,78.4,194.9,78.4,194.8,78.3z"/>
			</g>
			<g>
				<path class="st0" d="M195.6,78.7c0.1,0.1,0.3,0.1,0.4,0.2C195.9,78.7,195.8,78.7,195.6,78.7z"/>
			</g>
			<g>
				<path class="st0" d="M203.4,83.4c0.3,0.1,0.6,0.3,1,0.4C204,83.7,203.7,83.6,203.4,83.4z"/>
			</g>
			<g>
				<path class="st0" d="M193,78c0.1,0,0.3,0,0.4,0.1C193.3,78,193.1,78,193,78z"/>
			</g>
			<g>
				<path class="st0" d="M215.6,85.8c-0.2,0-0.4,0-0.6,0c0.1,0,0.2,0,0.2,0C215.3,85.9,215.5,85.8,215.6,85.8z"/>
			</g>
			<g>
				<path class="st0" d="M192.1,77.9c0.1,0,0.3,0,0.4,0C192.4,77.9,192.2,77.9,192.1,77.9z"/>
			</g>
			<g>
				<path class="st0" d="M217.3,85.8c0.2,0,0.4,0,0.7,0C217.8,85.8,217.5,85.8,217.3,85.8z"/>
			</g>
			<g>
				<path class="st0" d="M193.9,78.1c0.1,0,0.3,0.1,0.4,0.1C194.1,78.2,194,78.2,193.9,78.1z"/>
			</g>
			<g>
				<path class="st0" d="M233.3,78.5c0.3-0.2,0.5-0.5,0.8-0.7C233.8,78.1,233.5,78.3,233.3,78.5z"/>
			</g>
			<g>
				<path class="st0" d="M226.6,83.5c1.4-0.7,2.7-1.6,4-2.6C229.3,81.9,228,82.7,226.6,83.5z"/>
			</g>
			<g>
				<path class="st0" d="M232,79.7c0.5-0.4,0.9-0.8,1.3-1.2C232.9,78.9,232.4,79.3,232,79.7z"/>
			</g>
			<g>
				<path class="st0" d="M235.2,77.1c0.2-0.1,0.4-0.2,0.6-0.3C235.6,76.9,235.4,77,235.2,77.1z"/>
			</g>
			<g>
				<path class="st0" d="M240.3,75.5c0.2,0,0.4,0,0.6,0C240.7,75.5,240.5,75.5,240.3,75.5z"/>
			</g>
			<g>
				<path class="st0" d="M234.3,77.7c0.2-0.1,0.4-0.3,0.6-0.4C234.7,77.4,234.5,77.6,234.3,77.7z"/>
			</g>
			<g>
				<path class="st0" d="M201.2,82.3c0.2,0.1,0.4,0.3,0.7,0.4C201.7,82.6,201.5,82.4,201.2,82.3z"/>
			</g>
			<g>
				<path class="st0" d="M224.9,84.3c0.6-0.2,1.1-0.5,1.7-0.8C226,83.8,225.4,84.1,224.9,84.3z"/>
			</g>
			<g>
				<path class="st0" d="M199.4,81.1c0.2,0.1,0.4,0.3,0.6,0.4C199.8,81.4,199.6,81.2,199.4,81.1z"/>
			</g>
			<g>
				<path class="st0" d="M202.2,82.8c0.3,0.2,0.7,0.3,1,0.5C202.9,83.2,202.5,83,202.2,82.8z"/>
			</g>
			<g>
				<path class="st0" d="M200.3,81.7c0.2,0.1,0.4,0.3,0.6,0.4C200.7,82,200.5,81.8,200.3,81.7z"/>
			</g>
			<g>
				<path class="st0" d="M221.3,85.4c0.6-0.1,1.2-0.2,1.8-0.4C222.5,85.1,221.9,85.3,221.3,85.4z"/>
			</g>
			<g>
				<path class="st0" d="M198.4,80.3c0.3,0.2,0.5,0.4,0.8,0.6C198.9,80.7,198.6,80.5,198.4,80.3z"/>
			</g>
			<g>
				<path class="st0" d="M160.6,83.4c0.7,0.3,1.4,0.6,2.1,0.9C162.1,84,161.3,83.7,160.6,83.4z"/>
			</g>
			<g>
				<path class="st0" d="M196.5,79c0.1,0.1,0.2,0.1,0.3,0.2C196.7,79.2,196.6,79.1,196.5,79z"/>
			</g>
			<g>
				<path class="st0" d="M151.4,76.9c0.2,0.1,0.4,0.2,0.6,0.3C151.8,77.2,151.6,77,151.4,76.9z"/>
			</g>
			<g>
				<path class="st0" d="M149.3,76.1c0.3,0.1,0.6,0.2,0.9,0.3C149.9,76.3,149.6,76.2,149.3,76.1z"/>
			</g>
			<g>
				<path class="st0" d="M147.3,75.7c0.2,0,0.4,0.1,0.7,0.1C147.7,75.7,147.5,75.7,147.3,75.7z"/>
			</g>
			<g>
				<path class="st0" d="M152.3,77.5c0.2,0.1,0.4,0.3,0.6,0.4C152.7,77.7,152.5,77.6,152.3,77.5z"/>
			</g>
			<g>
				<path class="st0" d="M148.3,75.8c0.2,0,0.5,0.1,0.7,0.2C148.8,75.9,148.5,75.9,148.3,75.8z"/>
			</g>
			<g>
				<path class="st0" d="M144.8,75.7c0.4,0,0.8-0.1,1.2-0.1C145.6,75.6,145.2,75.6,144.8,75.7z"/>
			</g>
			<g>
				<path class="st0" d="M140.7,76.9c0.4-0.2,0.8-0.4,1.1-0.5C141.5,76.5,141.1,76.7,140.7,76.9z"/>
			</g>
			<g>
				<path class="st0" d="M139,77.7c0.6-0.3,1.2-0.5,1.7-0.8C140.2,77.2,139.6,77.5,139,77.7C139,77.7,139,77.7,139,77.7z"/>
			</g>
			<g>
				<path class="st0" d="M143.4,75.9c0.4-0.1,0.7-0.1,1.1-0.2C144.2,75.8,143.8,75.8,143.4,75.9z"/>
			</g>
			<g>
				<path class="st0" d="M153.1,78.1c0.3,0.2,0.5,0.4,0.8,0.7C153.6,78.5,153.4,78.3,153.1,78.1z"/>
			</g>
			<g>
				<path class="st0" d="M142.1,76.3c0.4-0.1,0.8-0.3,1.2-0.4C142.9,76,142.5,76.1,142.1,76.3z"/>
			</g>
			<g>
				<path class="st0" d="M146.3,75.6c0.2,0,0.5,0,0.7,0C146.7,75.6,146.5,75.6,146.3,75.6z"/>
			</g>
			<g>
				<path class="st0" d="M150.4,76.5c0.2,0.1,0.5,0.2,0.7,0.3C150.9,76.7,150.6,76.6,150.4,76.5z"/>
			</g>
			<g>
				<path class="st0" d="M186.6,79.2c0.2-0.1,0.3-0.2,0.5-0.3C186.9,79,186.7,79.1,186.6,79.2z"/>
			</g>
			<g>
				<path class="st0" d="M188.4,78.4c0.2-0.1,0.3-0.1,0.5-0.1C188.7,78.3,188.5,78.4,188.4,78.4z"/>
			</g>
			<g>
				<path class="st0" d="M187.5,78.7c0.2-0.1,0.3-0.1,0.5-0.2C187.8,78.6,187.6,78.7,187.5,78.7z"/>
			</g>
			<g>
				<path class="st0" d="M185.7,79.7c0.2-0.1,0.4-0.2,0.5-0.3C186,79.4,185.9,79.6,185.7,79.7z"/>
			</g>
			<g>
				<path class="st0" d="M184.6,80.4c0.3-0.2,0.5-0.4,0.8-0.6C185.1,80,184.9,80.2,184.6,80.4z"/>
			</g>
			<g>
				<path class="st0" d="M197.3,79.5c0.1,0.1,0.2,0.1,0.3,0.2C197.5,79.6,197.4,79.6,197.3,79.5z"/>
			</g>
			<g>
				<path class="st0" d="M165.1,84.9c0.8,0.2,1.7,0.3,2.5,0.4C166.8,85.2,165.9,85.1,165.1,84.9z"/>
			</g>
			<g>
				<path class="st0" d="M156.1,80.6c0.5,0.4,1.1,0.8,1.7,1.2C157.2,81.4,156.6,81,156.1,80.6z"/>
			</g>
			<g>
				<path class="st0" d="M239.2,75.7c0.2,0,0.4-0.1,0.7-0.1C239.7,75.6,239.4,75.6,239.2,75.7z"/>
			</g>
			<g>
				<path class="st0" d="M157.8,81.8c0.6,0.4,1.2,0.7,1.9,1.1C159,82.5,158.4,82.2,157.8,81.8z"/>
			</g>
			<g>
				<path class="st0" d="M191.1,77.9c0.2,0,0.3,0,0.5,0C191.4,77.9,191.3,77.9,191.1,77.9z"/>
			</g>
			<g>
				<path class="st0" d="M189.3,78.2c0.2,0,0.3-0.1,0.5-0.1C189.6,78.1,189.4,78.1,189.3,78.2z"/>
			</g>
			<g>
				<path class="st0" d="M190.2,78c0.2,0,0.3,0,0.5-0.1C190.5,78,190.3,78,190.2,78z"/>
			</g>
			<g>
				<path class="st0" d="M208.5,85.1c0.4,0.1,0.9,0.2,1.4,0.3C209.4,85.3,208.9,85.2,208.5,85.1z"/>
			</g>
			<g>
				<path class="st0" d="M275.1,81.6c0,0,0.1,0,0.1-0.1C275.2,81.6,275.1,81.6,275.1,81.6z"/>
			</g>
			<g>
				<path class="st0" d="M283.4,78.2c0.2,0,0.4,0,0.6,0C283.8,78.2,283.6,78.2,283.4,78.2z"/>
			</g>
			<g>
				<path class="st0" d="M274.2,82c0.1,0,0.2-0.1,0.3-0.1C274.3,82,274.3,82,274.2,82z"/>
			</g>
			<g>
				<path class="st0" d="M273.3,82.4c0.1,0,0.2-0.1,0.3-0.1C273.5,82.3,273.4,82.3,273.3,82.4z"/>
			</g>
			<g>
				<path class="st0" d="M289.2,80.4c0.3,0.2,0.6,0.4,1,0.7C289.9,80.8,289.5,80.6,289.2,80.4z"/>
			</g>
			<g>
				<path class="st0" d="M288.2,79.8c0.2,0.1,0.5,0.3,0.7,0.4C288.7,80.1,288.5,79.9,288.2,79.8z"/>
			</g>
			<g>
				<path class="st0" d="M277.4,80.5c0,0,0.1,0,0.1-0.1C277.5,80.5,277.4,80.5,277.4,80.5z"/>
			</g>
			<g>
				<path class="st0" d="M278.9,79.7c0.1-0.1,0.3-0.1,0.4-0.2C279.1,79.6,279,79.6,278.9,79.7z"/>
			</g>
			<g>
				<path class="st0" d="M276,81.2c0.1,0,0.1-0.1,0.2-0.1C276.1,81.2,276,81.2,276,81.2z"/>
			</g>
			<g>
				<path class="st0" d="M278.2,80.1c0.1-0.1,0.3-0.2,0.4-0.2C278.4,79.9,278.3,80,278.2,80.1z"/>
			</g>
			<g>
				<path class="st0" d="M279.4,79.4c0.2-0.1,0.4-0.2,0.5-0.3C279.8,79.2,279.6,79.3,279.4,79.4z"/>
			</g>
			<g>
				<path class="st0" d="M287.2,79.2c0.3,0.1,0.5,0.3,0.8,0.4C287.7,79.5,287.5,79.4,287.2,79.2z"/>
			</g>
			<g>
				<path class="st0" d="M276.7,80.9c0.1,0,0.1-0.1,0.2-0.1C276.8,80.8,276.8,80.9,276.7,80.9z"/>
			</g>
			<g>
				<path class="st0" d="M303.7,86.2c0.4,0,0.7,0.1,1.1,0.1C304.4,86.3,304,86.2,303.7,86.2z"/>
			</g>
			<g>
				<path class="st0" d="M296,84.3c0.1,0.1,0.3,0.1,0.4,0.2C296.3,84.4,296.2,84.3,296,84.3z"/>
			</g>
			<g>
				<path class="st0" d="M297.9,85c0.2,0.1,0.3,0.1,0.5,0.2C298.2,85.1,298,85,297.9,85z"/>
			</g>
			<g>
				<path class="st0" d="M294,83.3c0.1,0.1,0.3,0.1,0.4,0.2C294.3,83.5,294.1,83.4,294,83.3z"/>
			</g>
			<g>
				<path class="st0" d="M286.4,78.9c0.2,0.1,0.4,0.2,0.6,0.3C286.8,79.1,286.6,79,286.4,78.9z"/>
			</g>
			<g>
				<path class="st0" d="M292,82.2c0.1,0.1,0.2,0.1,0.3,0.2C292.2,82.3,292.1,82.3,292,82.2z"/>
			</g>
			<g>
				<path class="st0" d="M299.8,85.5c0.2,0.1,0.4,0.1,0.6,0.2C300.2,85.6,300,85.6,299.8,85.5z"/>
			</g>
			<g>
				<path class="st0" d="M309.4,123.7c0-4.1,0-7.1-0.1-10.8v0c-0.1-3.5-0.2-12.3-0.4-21.7c-0.9,0.1-1.8,0.1-2.7,0.1
					c-6.7,0-12.9-2-18.9-6.1c-2.7-1.9-3.8-2-4-2c-0.4,0-1.4,0.6-2.4,1.1c-1.6,0.9-3.9,2.2-7.1,3.2c-1.9,0.6-4,0.9-6.3,0.9
					c-6.4,0-14.2-2.4-23.2-7.1c-1-0.5-2.1-0.8-3.2-0.8c-1.7,0-3.2,0.6-4.4,1.7c-5.3,4.9-10.6,7.7-15.7,8.3c-2,0.3-3.9,0.4-5.8,0.4
					c-7.9,0-14.6-2.3-20-6.7c-1.2-1-2.6-1.2-3.5-1.2c-1.4,0-2.8,0.5-3.9,1.4c-5.1,4.1-10.9,6.2-17.4,6.2c-7.5,0-14.4-2.8-20-8.2
					c-0.2-0.2-0.4-0.3-0.6-0.5c0,0,0.1,0,0.1,0.1c5.8,5.7,10.4,11.8,13.7,18.2c4.8-3,8.8-3,10.5-3l0,0h0c7.3,0,13.8,0,21.8,8.8
					c6.3-0.7,13-1,19.6-1h0c6.6,0,13.2,0.3,19.6,1c8.1-8.8,14.5-8.8,21.9-8.8h0v0c3.5,0,17.3,0,26.9,27l10.3,37.1
					c7.7,27.6-2.5,28.3-15.1,28.3c-18.7-0.7-29.1-14.3-29.1-27.9c-10.4,1.7-22.5,2.6-34.5,2.6h0c-8.1,0-16.3-0.4-23.9-1.2
					c0.1,1.4,0.2,2.7,0.2,4.1c0,1.3-0.4,5.8-4.9,11.1l-6,7c0.4,2.4,0.7,6,0.9,11.4c0.1,4,0.2,10.8-0.1,14.1
					c10.9,0.5,22.3,0.7,33.8,0.7h0c33.2,0,66.3-1.9,84.3-6.1C311.5,193.4,309.2,145.2,309.4,123.7z"/>
			</g>
			<g>
				<path class="st0" d="M284.8,78.3c0.2,0.1,0.4,0.1,0.7,0.2C285.2,78.4,285,78.4,284.8,78.3z"/>
			</g>
			<g>
				<path class="st0" d="M284.1,78.2c0.2,0,0.3,0,0.5,0.1C284.4,78.3,284.3,78.2,284.1,78.2z"/>
			</g>
			<g>
				<path class="st0" d="M238,75.9c0.3-0.1,0.6-0.2,0.9-0.2C238.6,75.8,238.3,75.8,238,75.9z"/>
			</g>
			<g>
				<path class="st0" d="M285.5,78.5c0.2,0.1,0.4,0.2,0.7,0.2C286,78.7,285.7,78.6,285.5,78.5z"/>
			</g>
			<g>
				<path class="st0" d="M308.8,86.2C308.8,86.2,308.8,86.2,308.8,86.2c-1.1,0.1-2.1,0.1-3.2,0.1c0.2,0,0.4,0,0.6,0
					C307.1,86.3,307.9,86.3,308.8,86.2z"/>
			</g>
			<g>
				<path class="st0" d="M280,79.1c0.2-0.1,0.3-0.2,0.5-0.2C280.3,78.9,280.2,79,280,79.1z"/>
			</g>
			<g>
				<path class="st0" d="M301.8,86c0.3,0,0.5,0.1,0.8,0.1C302.3,86,302.1,86,301.8,86z"/>
			</g>
			<g>
				<path class="st0" d="M267.7,83.4c-0.5,0-1,0-1.5,0c0.5,0,0.9,0,1.4,0C267.6,83.4,267.6,83.4,267.7,83.4z"/>
			</g>
			<g>
				<path class="st0" d="M261.4,82.6c0.4,0.1,0.7,0.2,1.1,0.2C262.2,82.8,261.8,82.7,261.4,82.6z"/>
			</g>
			<g>
				<path class="st0" d="M269.6,83.2c0.3,0,0.7-0.1,1-0.1C270.3,83.2,269.9,83.2,269.6,83.2z"/>
			</g>
			<g>
				<path class="st0" d="M264.7,83.2c0.4,0.1,0.8,0.1,1.2,0.1C265.5,83.3,265.1,83.2,264.7,83.2z"/>
			</g>
			<g>
				<path class="st0" d="M242.7,75.6c0.4,0,0.8,0.1,1.1,0.2C243.4,75.7,243,75.7,242.7,75.6z"/>
			</g>
			<g>
				<path class="st0" d="M263.1,82.9c0.4,0.1,0.7,0.1,1.1,0.2C263.8,83,263.4,83,263.1,82.9z"/>
			</g>
			<g>
				<path class="st0" d="M268.1,83.3c0.4,0,0.7,0,1.1-0.1C268.8,83.3,268.4,83.3,268.1,83.3z"/>
			</g>
			<g>
				<path class="st0" d="M236.1,76.6c0.2-0.1,0.4-0.2,0.6-0.3C236.5,76.5,236.3,76.5,236.1,76.6z"/>
			</g>
			<g>
				<path class="st0" d="M241.2,75.5c0.4,0,0.8,0,1.2,0.1C242,75.5,241.6,75.5,241.2,75.5z"/>
			</g>
			<g>
				<path class="st0" d="M237,76.2c0.3-0.1,0.6-0.2,0.9-0.3C237.6,76,237.3,76.1,237,76.2z"/>
			</g>
			<g>
				<path class="st0" d="M246.6,76.9c0.4,0.2,0.8,0.4,1.3,0.7C247.5,77.3,247.1,77.1,246.6,76.9z"/>
			</g>
			<g>
				<path class="st0" d="M244,75.9c0.4,0.1,0.8,0.2,1.2,0.4C244.8,76.1,244.4,76,244,75.9z"/>
			</g>
			<g>
				<path class="st0" d="M245.4,76.3c0.4,0.2,0.8,0.3,1.2,0.5C246.2,76.7,245.8,76.5,245.4,76.3z"/>
			</g>
			<g>
				<path class="st0" d="M282.3,78.3c0.1,0,0.3,0,0.4-0.1C282.5,78.2,282.4,78.2,282.3,78.3z"/>
			</g>
			<g>
				<path class="st0" d="M280.6,78.8c0.1-0.1,0.2-0.1,0.4-0.2C280.9,78.7,280.7,78.8,280.6,78.8z"/>
			</g>
			<g>
				<path class="st0" d="M282.8,78.2c0.1,0,0.3,0,0.4,0C283.1,78.2,283,78.2,282.8,78.2z"/>
			</g>
			<g>
				<path class="st0" d="M271,83c0.4-0.1,0.9-0.2,1.3-0.3C271.9,82.8,271.5,82.9,271,83z"/>
			</g>
			<g>
				<path class="st0" d="M248.3,77.7c0.3,0.2,0.6,0.3,1,0.5C249,78,248.6,77.9,248.3,77.7z"/>
			</g>
			<g>
				<path class="st0" d="M281.6,78.4c0.2-0.1,0.3-0.1,0.5-0.1C282,78.3,281.8,78.4,281.6,78.4z"/>
			</g>
			<g>
				<path class="st0" d="M281.1,78.6c0.1-0.1,0.3-0.1,0.4-0.2C281.4,78.5,281.3,78.5,281.1,78.6z"/>
			</g>
			<g>
				<path class="st0" d="M251.2,79.1c0.4,0.2,0.9,0.4,1.3,0.6C252.1,79.5,251.6,79.3,251.2,79.1z"/>
			</g>
			<g>
				<path class="st0" d="M256.2,81.1c0.4,0.1,0.7,0.2,1.1,0.4C257,81.3,256.6,81.2,256.2,81.1z"/>
			</g>
			<g>
				<path class="st0" d="M257.8,81.6c0.4,0.1,0.9,0.3,1.3,0.4C258.7,81.9,258.3,81.8,257.8,81.6z"/>
			</g>
			<g>
				<path class="st0" d="M254.6,80.5c0.4,0.1,0.7,0.3,1.1,0.4C255.3,80.8,255,80.6,254.6,80.5z"/>
			</g>
			<g>
				<path class="st0" d="M252.7,79.7c0.5,0.2,1,0.4,1.5,0.6C253.7,80.1,253.2,79.9,252.7,79.7z"/>
			</g>
			<g>
				<path class="st0" d="M249.8,78.4c0.3,0.2,0.6,0.3,1,0.5C250.4,78.7,250.1,78.6,249.8,78.4z"/>
			</g>
			<g>
				<path class="st0" d="M259.4,82.1c0.5,0.1,1,0.3,1.6,0.4C260.4,82.4,259.9,82.2,259.4,82.1z"/>
			</g>
		</g>
	</g>
	<path class="st0" d="M331.9,52c-0.1-0.6-0.2-1.2-0.3-1.8c-0.5-3-1-6.1-1.6-9.1c-0.1-0.6-0.3-1.2-0.4-1.8c-0.4-1.8-0.9-3.6-1.4-5.3
		c-0.4-1.2-0.7-2.3-1.2-3.5c-0.8-2.3-1.8-4.5-2.9-6.6c-0.7-1.3-1.4-2.5-2.2-3.7c-0.8-1.2-1.6-2.3-2.6-3.4c-0.9-1.1-1.9-2.2-3-3.2
		s-2.2-2-3.5-2.9c-0.7-0.5-1.4-1-2.1-1.5c-0.2-0.2-0.5-0.3-0.7-0.5c-0.5-0.3-1-0.6-1.5-0.9c-0.3-0.2-0.6-0.3-0.9-0.5
		c-0.5-0.2-0.9-0.5-1.4-0.7c-0.3-0.2-0.6-0.3-1-0.5c-0.4-0.2-0.9-0.4-1.4-0.6c-0.3-0.1-0.7-0.3-1-0.4c-0.5-0.2-0.9-0.4-1.4-0.5
		c-0.3-0.1-0.7-0.3-1-0.4c-0.5-0.2-0.9-0.3-1.4-0.5c-0.3-0.1-0.7-0.2-1-0.3c-0.5-0.2-1-0.3-1.5-0.4c-0.3-0.1-0.7-0.2-1-0.3
		c-0.5-0.1-1.1-0.3-1.7-0.4c-0.3-0.1-0.6-0.1-0.9-0.2c-0.8-0.2-1.7-0.4-2.5-0.5c-0.2,0-0.4-0.1-0.6-0.1c-0.7-0.1-1.3-0.2-2-0.3
		c-0.3-0.1-0.7-0.1-1-0.1c-0.5-0.1-1.1-0.1-1.6-0.2c-0.4,0-0.7-0.1-1.1-0.1c-0.5-0.1-1-0.1-1.5-0.2c-0.4,0-0.8-0.1-1.2-0.1
		c-0.5,0-1-0.1-1.5-0.1c-0.4,0-0.8,0-1.2-0.1c-0.5,0-1-0.1-1.5-0.1c-0.4,0-0.8,0-1.1,0c-0.5,0-1.1,0-1.6,0c-0.4,0-0.7,0-1.1,0
		c-0.6,0-1.1,0-1.7,0c-0.3,0-0.6,0-0.9,0c-1.3,0-2.7,0-4,0c-0.2,0-0.5,0-0.7,0c-1.3,0-2.6,0.1-3.9,0.1c-0.2,0-0.4,0-0.6,0
		c-1.3,0.1-2.7,0.1-4,0.2c-0.1,0-0.2,0-0.3,0c-1.4,0.1-2.8,0.1-4.2,0.2c0,0-0.1,0-0.1,0c-0.2,0-0.4,0-0.6,0
		c-0.9,0.1-1.9,0.1-2.8,0.2c-0.4,0-0.7,0-1.1,0.1c-1.3,0.1-2.5,0.1-3.7,0.2c-0.2,0-0.5,0-0.7,0c-1.3,0.1-2.5,0.1-3.7,0.2
		c-0.2,0-0.3,0-0.5,0c-1.3,0-2.6,0.1-3.8,0.1c-30.7,0.4-61.4,0.7-92.1,1.1c-6,0.1-12.1,0.2-17.8,1.9c-12.7,3.8-19.3,17.3-24.1,28.6
		c-2.5,5.9-3.8,12.9-3.5,19.8c0.2,4,0.9,8,2.3,11.6c0.4,1,0.8,2,1.3,3c0.4,0.8,0.8,1.6,1.3,2.3c0.2,0.4,0.5,0.7,0.7,1.1
		c0.8,1.1,1.7,2.2,2.7,3.2c0.6,0.6,1.3,1.2,1.9,1.7c0.4,0.3,0.8,0.6,1.1,0.9c1.6,1.2,3.5,2.1,5.5,2.9c0.5,0.2,1,0.3,1.5,0.5
		c0.1,0,0.3,0.1,0.4,0.1c0.4,0.1,0.8,0.2,1.2,0.3c0.1,0,0.2,0.1,0.3,0.1c0.5,0.1,1,0.2,1.5,0.3c0.1,0,0.2,0,0.3,0.1
		c0.4,0.1,0.8,0.1,1.2,0.2c0.1,0,0.3,0,0.4,0c0.5,0,1,0.1,1.5,0.1c0,0,0,0,0.1,0c0.4,0,0.9,0,1.3,0c0.6,0,1.2,0,1.8-0.1
		c0,0,0.1,0,0.1,0c0.6,0,1.2-0.1,1.9-0.2c0.2,0,0.4-0.1,0.6-0.1c0.4-0.1,0.9-0.1,1.3-0.2c0.2,0,0.4-0.1,0.6-0.1
		c0.5-0.1,0.9-0.2,1.4-0.3c0.1,0,0.3-0.1,0.4-0.1c0.6-0.2,1.2-0.4,1.8-0.6c0.1,0,0.3-0.1,0.4-0.1c0.5-0.2,0.9-0.3,1.4-0.5
		c0.2-0.1,0.4-0.2,0.6-0.2c0.4-0.2,0.8-0.4,1.3-0.5c0.2-0.1,0.4-0.2,0.5-0.2c0.6-0.3,1.2-0.5,1.7-0.8c0.4-0.2,0.8-0.4,1.1-0.5
		c0.1,0,0.2-0.1,0.3-0.1c0.4-0.1,0.8-0.3,1.2-0.4c0,0,0.1,0,0.1,0c0.4-0.1,0.7-0.1,1.1-0.2c0.1,0,0.2,0,0.3,0c0.4,0,0.8-0.1,1.2-0.1
		c0,0,0,0,0.1,0c0.1,0,0.1,0,0.2,0c0.2,0,0.5,0,0.7,0c0.1,0,0.2,0,0.3,0c0.2,0,0.4,0.1,0.7,0.1c0.1,0,0.2,0,0.3,0.1
		c0.2,0,0.5,0.1,0.7,0.2c0.1,0,0.2,0,0.2,0.1c0.3,0.1,0.6,0.2,0.9,0.3c0.1,0,0.1,0.1,0.2,0.1c0.2,0.1,0.5,0.2,0.7,0.3
		c0.1,0.1,0.2,0.1,0.3,0.2c0.2,0.1,0.4,0.2,0.6,0.3c0.1,0.1,0.2,0.1,0.3,0.2c0.2,0.1,0.4,0.3,0.6,0.4c0.1,0.1,0.2,0.1,0.3,0.2
		c0.3,0.2,0.5,0.4,0.8,0.7c0.7,0.6,1.4,1.3,2.2,1.9c1.1,0.8,2.2,1.6,3.6,2.3c0.3,0.2,0.7,0.3,1,0.5c0.7,0.3,1.4,0.6,2.1,0.9
		c0.7,0.3,1.5,0.5,2.3,0.7s1.7,0.3,2.5,0.4c0.9,0.1,1.8,0.2,2.7,0.2c3.1,0,5.8-0.6,8.1-1.5c1.2-0.5,2.3-1,3.3-1.6
		c1-0.6,1.9-1.3,2.8-2c0.3-0.2,0.5-0.4,0.8-0.6c0.1-0.1,0.2-0.1,0.3-0.2c0.2-0.1,0.4-0.2,0.5-0.3c0.1-0.1,0.2-0.1,0.3-0.2
		c0.2-0.1,0.3-0.2,0.5-0.3c0.1-0.1,0.3-0.1,0.4-0.2c0.2-0.1,0.3-0.1,0.5-0.2c0.1,0,0.3-0.1,0.4-0.1c0.2-0.1,0.3-0.1,0.5-0.1
		c0.1,0,0.3-0.1,0.4-0.1c0.2,0,0.3-0.1,0.5-0.1c0.1,0,0.3,0,0.4-0.1c0.2,0,0.3,0,0.5-0.1c0.1,0,0.3,0,0.4,0c0.2,0,0.3,0,0.5,0
		c0,0,0.1,0,0.1,0c0.1,0,0.3,0,0.4,0c0.1,0,0.3,0,0.4,0c0.2,0,0.3,0,0.5,0.1c0.1,0,0.3,0,0.4,0.1c0.2,0,0.3,0.1,0.5,0.1
		c0.1,0,0.3,0.1,0.4,0.1c0.2,0,0.3,0.1,0.5,0.1c0.1,0,0.3,0.1,0.4,0.1c0.2,0.1,0.3,0.1,0.5,0.2c0.1,0.1,0.3,0.1,0.4,0.2
		c0.2,0.1,0.3,0.2,0.5,0.2c0.1,0.1,0.2,0.1,0.3,0.2c0.2,0.1,0.4,0.2,0.5,0.3c0.1,0.1,0.2,0.1,0.3,0.2c0.3,0.2,0.5,0.4,0.8,0.6
		c0.3,0.2,0.5,0.4,0.8,0.6c0.1,0.1,0.2,0.1,0.3,0.2c0.2,0.1,0.4,0.3,0.6,0.4c0.1,0.1,0.2,0.1,0.3,0.2c0.2,0.1,0.4,0.3,0.6,0.4
		c0.1,0.1,0.2,0.1,0.3,0.2c0.2,0.1,0.4,0.3,0.7,0.4c0.1,0.1,0.2,0.1,0.3,0.2c0.3,0.2,0.7,0.3,1,0.5c0,0,0.1,0,0.1,0.1
		c0.3,0.1,0.6,0.3,1,0.4c0.1,0.1,0.2,0.1,0.4,0.1c0.3,0.1,0.5,0.2,0.8,0.3c0.1,0.1,0.3,0.1,0.4,0.2c0.3,0.1,0.5,0.2,0.8,0.3
		c0.1,0,0.3,0.1,0.4,0.1c0.3,0.1,0.6,0.2,0.9,0.2c0.1,0,0.2,0.1,0.4,0.1c0.4,0.1,0.9,0.2,1.4,0.3c0.1,0,0.2,0,0.3,0
		c0.4,0.1,0.8,0.1,1.1,0.2c0.2,0,0.3,0,0.5,0.1c0.3,0,0.7,0.1,1,0.1c0.2,0,0.4,0,0.6,0c0.3,0,0.7,0,1,0c0.2,0,0.4,0,0.6,0
		c0.2,0,0.4,0,0.6,0c0.6,0,1.1,0,1.7-0.1c0.2,0,0.4,0,0.7,0c0.8-0.1,1.6-0.1,2.4-0.2c0.3,0,0.6-0.1,0.9-0.1c0.6-0.1,1.2-0.2,1.8-0.4
		s1.2-0.4,1.8-0.6c2-0.9,3.9-2.1,5.7-3.4c0.5-0.4,1-0.8,1.4-1.2s0.9-0.8,1.3-1.2c0.3-0.2,0.5-0.5,0.8-0.7c0.1-0.1,0.2-0.1,0.3-0.2
		c0.2-0.1,0.4-0.3,0.6-0.4c0.1-0.1,0.2-0.1,0.3-0.2c0.2-0.1,0.4-0.2,0.6-0.3c0.1-0.1,0.2-0.1,0.3-0.2c0.2-0.1,0.4-0.2,0.6-0.3
		c0.1,0,0.2-0.1,0.3-0.1c0.3-0.1,0.6-0.2,0.9-0.3c0,0,0,0,0.1,0c0.3-0.1,0.6-0.2,0.9-0.2c0.1,0,0.2,0,0.3-0.1c0.2,0,0.4-0.1,0.7-0.1
		c0.1,0,0.2,0,0.4,0c0.2,0,0.4,0,0.6,0c0.1,0,0.1,0,0.2,0c0,0,0.1,0,0.1,0c0.4,0,0.8,0,1.2,0.1c0.1,0,0.1,0,0.2,0
		c0.4,0,0.7,0.1,1.1,0.2c0.1,0,0.1,0,0.2,0c0.4,0.1,0.8,0.2,1.2,0.4c0.1,0,0.2,0.1,0.3,0.1c0.4,0.2,0.8,0.3,1.2,0.5
		c0.4,0.2,0.8,0.4,1.3,0.7c0.1,0.1,0.3,0.1,0.4,0.2c0.3,0.2,0.6,0.3,1,0.5c0.2,0.1,0.3,0.2,0.5,0.2c0.3,0.2,0.6,0.3,1,0.5
		c0.2,0.1,0.3,0.1,0.5,0.2c0.4,0.2,0.9,0.4,1.3,0.6c0,0,0.1,0,0.1,0.1c0.5,0.2,1,0.4,1.5,0.6c0.2,0.1,0.3,0.1,0.5,0.2
		c0.4,0.1,0.7,0.3,1.1,0.4c0.2,0.1,0.4,0.1,0.5,0.2c0.4,0.1,0.7,0.2,1.1,0.4c0.2,0.1,0.3,0.1,0.5,0.2c0.4,0.1,0.9,0.3,1.3,0.4
		c0.1,0,0.2,0,0.2,0.1c0.5,0.1,1,0.3,1.6,0.4c0.2,0,0.3,0.1,0.5,0.1c0.4,0.1,0.7,0.2,1.1,0.2c0.2,0,0.4,0.1,0.5,0.1
		c0.4,0.1,0.7,0.1,1.1,0.2c0.2,0,0.3,0.1,0.5,0.1c0.4,0,0.8,0.1,1.2,0.1c0.1,0,0.2,0,0.3,0c0.5,0,1,0,1.5,0c0.1,0,0.2,0,0.4,0
		c0.4,0,0.7,0,1.1-0.1c0.2,0,0.3,0,0.5,0c0.3,0,0.7-0.1,1-0.1c0.1,0,0.3,0,0.4-0.1c0.4-0.1,0.9-0.2,1.3-0.3c0,0,0,0,0,0
		c0.3-0.1,0.6-0.2,0.9-0.3c0.1,0,0.2-0.1,0.3-0.1c0.2-0.1,0.4-0.2,0.6-0.2c0.1,0,0.2-0.1,0.3-0.1c0.2-0.1,0.5-0.2,0.7-0.3
		c0,0,0.1,0,0.1-0.1c0.3-0.1,0.5-0.2,0.7-0.3c0.1,0,0.1-0.1,0.2-0.1c0.2-0.1,0.4-0.2,0.5-0.3c0.1,0,0.1-0.1,0.2-0.1
		c0.2-0.1,0.3-0.2,0.5-0.3c0,0,0.1,0,0.1-0.1c0.2-0.1,0.4-0.2,0.6-0.3c0.1-0.1,0.3-0.2,0.4-0.2c0.1-0.1,0.2-0.1,0.3-0.2
		c0.1-0.1,0.3-0.1,0.4-0.2c0.1,0,0.1-0.1,0.2-0.1c0.2-0.1,0.4-0.2,0.5-0.3c0,0,0,0,0,0c0.2-0.1,0.3-0.2,0.5-0.2c0.1,0,0.1,0,0.2-0.1
		c0.1-0.1,0.2-0.1,0.4-0.2c0.1,0,0.1,0,0.2-0.1c0.1-0.1,0.3-0.1,0.4-0.2c0,0,0,0,0.1,0c0.2-0.1,0.3-0.1,0.5-0.1c0,0,0.1,0,0.1,0
		c0.1,0,0.3,0,0.4-0.1c0.1,0,0.1,0,0.2,0c0.1,0,0.3,0,0.4,0c0,0,0.1,0,0.1,0c0,0,0,0,0,0c0.2,0,0.4,0,0.6,0c0,0,0.1,0,0.2,0
		c0.2,0,0.3,0,0.5,0.1c0.1,0,0.1,0,0.2,0c0.2,0.1,0.4,0.1,0.7,0.2c0,0,0,0,0.1,0c0.2,0.1,0.4,0.2,0.7,0.2c0.1,0,0.1,0.1,0.2,0.1
		c0.2,0.1,0.4,0.2,0.6,0.3c0.1,0,0.1,0.1,0.2,0.1c0.3,0.1,0.5,0.3,0.8,0.4c0.1,0,0.1,0.1,0.2,0.1c0.2,0.1,0.5,0.3,0.7,0.4
		c0.1,0.1,0.2,0.1,0.3,0.2c0.3,0.2,0.6,0.4,1,0.7c0.6,0.4,1.2,0.8,1.9,1.2c0.2,0.1,0.4,0.2,0.6,0.3c0.4,0.2,0.8,0.5,1.3,0.7
		c0.2,0.1,0.5,0.2,0.7,0.3c0.4,0.2,0.8,0.4,1.2,0.5c0.2,0.1,0.5,0.2,0.7,0.3c0.4,0.2,0.8,0.3,1.2,0.4c0.2,0.1,0.5,0.2,0.7,0.2
		c0.4,0.1,0.8,0.2,1.2,0.3c0.2,0.1,0.4,0.1,0.7,0.2c0.5,0.1,1,0.2,1.6,0.3c0.1,0,0.2,0,0.3,0.1c0.6,0.1,1.3,0.2,1.9,0.2
		c0.2,0,0.4,0,0.6,0c0.5,0,0.9,0,1.4,0.1c0.4,0,0.7,0,1.1,0c0.2,0,0.3,0,0.5,0c0.5,0,1.1-0.1,1.7-0.1c0.1,0,0.2,0,0.3,0
		c0.5-0.1,0.9-0.1,1.4-0.2c0.2,0,0.4-0.1,0.6-0.1c0.4-0.1,0.7-0.1,1.1-0.2c0.2,0,0.4-0.1,0.6-0.1c0.4-0.1,0.7-0.2,1.1-0.3
		c0.2-0.1,0.4-0.1,0.6-0.2c0.4-0.1,0.8-0.2,1.2-0.3c0.2-0.1,0.4-0.1,0.6-0.2c0.6-0.2,1.2-0.4,1.7-0.6C332.6,78.8,333.7,65,331.9,52z
		"/>
	<path class="st0" d="M165.6,125.5c-1-16.1-7.9-29-19.1-40c-0.3-0.3-0.5-0.5-0.8-0.7c-0.1-0.1-0.2-0.1-0.3-0.2
		c-0.2-0.1-0.4-0.3-0.6-0.4c-0.1-0.1-0.2-0.1-0.3-0.2c-0.2-0.1-0.3-0.2-0.5-0.3c-0.1-0.1-0.2-0.1-0.3-0.2c-0.2-0.1-0.4-0.2-0.5-0.3
		c-0.1,0-0.2-0.1-0.3-0.1c-0.2-0.1-0.4-0.2-0.7-0.2c-0.1,0-0.1,0-0.2,0c-0.3-0.1-0.5-0.1-0.8-0.1c-0.1,0-0.1,0-0.2,0
		c-0.2,0-0.4,0-0.5,0c-0.2,0-0.4,0-0.6,0.1c-0.1,0-0.2,0-0.3,0c-0.3,0.1-0.6,0.1-0.8,0.2c-0.1,0-0.1,0.1-0.2,0.1
		c-0.2,0.1-0.4,0.2-0.6,0.3c-0.1,0.1-0.2,0.1-0.3,0.2c-0.2,0.1-0.3,0.2-0.5,0.4c-0.1,0.1-0.2,0.2-0.3,0.3c-0.1,0.1-0.3,0.3-0.4,0.4
		c-0.1,0.1-0.2,0.2-0.3,0.3c-0.1,0.2-0.3,0.4-0.4,0.5c-0.1,0.1-0.2,0.2-0.2,0.4c-0.1,0.2-0.2,0.5-0.4,0.7c-0.1,0.1-0.1,0.2-0.2,0.3
		c-0.2,0.4-0.3,0.8-0.5,1.2c-1.9,5.7-1.2,11.8-0.3,17.4c0.9,6.3,2.7,12.6,5.6,18.4c0.4,0.8,0.9,1.6,1.3,2.4h0l0,0c0,0,0,0,0,0
		c-0.3,0-0.5,0-0.7,0c-0.1,0-0.1,0-0.2,0c-0.1,0-0.1,0-0.2,0c-0.1,0-0.2,0-0.2,0c-0.1,0-0.1,0-0.2,0c-0.1,0-0.1,0-0.2,0
		c0,0-0.1,0-0.1,0c-0.1,0-0.1,0-0.2,0c0,0-0.1,0-0.1,0c-0.1,0-0.1,0-0.2,0c0,0-0.1,0-0.1,0c-0.1,0-0.2,0-0.3,0.1c0,0,0,0,0,0
		c-0.1,0-0.2,0-0.2,0.1c0,0-0.1,0-0.1,0c-0.1,0-0.1,0-0.2,0.1c0,0-0.1,0-0.1,0c-0.1,0-0.1,0-0.2,0.1c-0.1,0-0.1,0-0.2,0.1
		c-0.1,0-0.1,0-0.2,0.1c-0.1,0-0.2,0.1-0.3,0.1c-0.1,0-0.1,0-0.2,0.1c-0.1,0-0.2,0.1-0.2,0.1c-0.1,0-0.1,0-0.2,0.1
		c-0.1,0-0.2,0.1-0.3,0.1c-0.1,0-0.1,0-0.2,0.1c-0.1,0-0.2,0.1-0.3,0.1c-0.1,0-0.1,0-0.2,0.1c-0.2,0.1-0.4,0.1-0.6,0.2
		c-0.3-3-2-5.4-3.5-7.9c-6.9-11.1-16.7-22.3-28.6-28c-0.4-0.2-0.8-0.4-1.2-0.5c-0.1,0-0.2-0.1-0.3-0.1c-0.4-0.1-0.7-0.2-1.1-0.3
		c-0.1,0-0.1,0-0.2,0c-0.4-0.1-0.8-0.2-1.2-0.2c-0.1,0-0.2,0-0.3,0c-0.3,0-0.7-0.1-1-0.1c-0.1,0-0.2,0-0.2,0c-0.3,0-0.7,0-1,0.1
		c-0.1,0-0.1,0-0.2,0c-0.3,0-0.5,0.1-0.8,0.2c-0.1,0-0.2,0.1-0.3,0.1c-0.2,0.1-0.4,0.2-0.6,0.3c-0.1,0-0.2,0.1-0.3,0.1
		c-0.2,0.1-0.5,0.3-0.7,0.4c-0.1,0-0.1,0.1-0.2,0.1c-0.3,0.2-0.5,0.4-0.8,0.7c-0.1,0.1-0.1,0.1-0.2,0.2c-0.2,0.2-0.3,0.4-0.5,0.6
		c-0.1,0.1-0.1,0.2-0.2,0.3c-0.1,0.2-0.3,0.5-0.4,0.7c-0.1,0.1-0.1,0.2-0.2,0.3c-0.2,0.4-0.3,0.8-0.5,1.2
		c-3.2,10,12.6,26.2,18.9,32.5c-1.4,2.6-6.9,2.7-6.9,2.7s-2.7-1.5-3.9-2.5c-6.1-5.1-11.5-10.2-19.3-12.7c-0.9-0.3-1.9-0.6-2.8-0.8
		c-0.2-0.1-0.4-0.1-0.6-0.2c-0.9-0.2-1.9-0.4-2.8-0.6c-0.2,0-0.3-0.1-0.5-0.1c-0.9-0.2-1.7-0.3-2.6-0.4c-0.1,0-0.3,0-0.4-0.1
		c-1-0.1-1.9-0.2-2.9-0.3c-0.2,0-0.4,0-0.6,0c-1-0.1-1.9-0.1-2.9-0.1c-0.1,0-0.2,0-0.3,0c-0.9,0-1.8,0-2.7,0.1c-0.3,0-0.6,0-0.9,0.1
		c-0.7,0.1-1.5,0.1-2.2,0.2c-0.3,0-0.6,0.1-0.9,0.1c-1,0.1-2,0.3-3,0.5C28.5,118.6,7,135.3,1.6,160.2c-5.6,25.4,3.6,51.5,24.8,66.4
		c16.3,11.5,35.9,14.9,55,18.8c0.9,0.2,1.9,0.4,2.8,0.5c0.3,0,0.6,0.1,0.9,0.1c0.7,0.1,1.4,0.2,2.2,0.3c0.3,0,0.6,0.1,0.8,0.1
		c1,0.1,1.9,0.2,2.9,0.3c0.1,0,0.2,0,0.3,0c0.9,0.1,1.8,0.1,2.7,0.2c0.3,0,0.6,0,0.9,0c0.8,0,1.5,0.1,2.3,0.1c0.3,0,0.6,0,0.8,0
		c1,0,2,0,3,0c1.3,0,2.6,0,3.9-0.1c0.4,0,0.8,0,1.1,0c1,0,1.9-0.1,2.9-0.1c0.5,0,0.9-0.1,1.4-0.1c0.9-0.1,1.8-0.1,2.7-0.2
		c0.4,0,0.8-0.1,1.3-0.1c1.2-0.1,2.4-0.2,3.5-0.4c0.1,0,0.2,0,0.4,0c1.3-0.2,2.6-0.3,3.9-0.5c0.4-0.1,0.8-0.1,1.2-0.2
		c0.9-0.1,1.8-0.3,2.7-0.4c0.4-0.1,0.9-0.1,1.3-0.2c0.9-0.2,1.7-0.3,2.6-0.5c0.4-0.1,0.8-0.1,1.1-0.2c1.2-0.2,2.4-0.5,3.6-0.8
		c1.6-0.4,3.2-0.8,4.8-1.2c1.1-0.3,2.2-0.6,3.3-1c2.2-0.7,4.5-1.5,6.7-2.5c1.1-0.5,2.2-1,3.3-1.5c1.6-0.8,3.2-1.6,4.8-2.5
		c4.2-2.4,8-5.3,11.2-8.6c0.8-0.8,1.5-1.7,2.2-2.6c1.8-2.3,3.2-4.7,4.3-7.4c0.6-1.6,1.1-3.3,1.5-5c0.6-3,0.4-28.2-2-28.5
		c0,0,0,0,0,0c0,0,0,0,0,0c0,0,0,0,0-0.1c0,0,0,0,0,0c0,0,0-0.1,0-0.1c0,0,0,0,0-0.1c0,0,0-0.1,0-0.1c0,0,0,0,0-0.1c0,0,0-0.1,0-0.1
		c0,0,0,0,0-0.1c0,0,0,0,0-0.1c0,0,0,0,0,0c0,0,0,0-0.1,0c0,0,0,0-0.1,0c-0.1,0-0.1,0-0.2,0c-0.4,0.1-0.8,0.1-1.3,0.2
		c-0.1,0-0.3,0-0.4,0c-0.3,0-0.6,0-0.9,0c-0.1,0-0.1,0-0.2,0c-0.1,0-0.2,0-0.3,0c-0.4,0-0.8,0-1.2-0.1c-0.1,0-0.3,0-0.4,0
		c-0.5-0.1-1-0.1-1.5-0.2c-0.1,0-0.2,0-0.3-0.1c-0.4-0.1-0.8-0.2-1.3-0.3c-0.1,0-0.3-0.1-0.4-0.1c-0.5-0.2-1-0.3-1.4-0.5
		c-0.5-0.2-1-0.5-1.4-0.9c-1-1.1-1.1-4.4,0.8-4.7c0.1,0,0.1,0,0.2,0c0.1,0,0.1,0,0.2,0c0,0,0.1,0,0.1,0c0.1,0,0.2,0.1,0.4,0.1
		c0.4,0.1,0.8,0.2,1.3,0.3c0.1,0,0.2,0,0.3,0.1c0.4,0.1,0.9,0.2,1.3,0.3c0.1,0,0.1,0,0.2,0c0.4,0.1,0.8,0.1,1.2,0.1
		c0.1,0,0.2,0,0.3,0c0.4,0,0.9,0.1,1.3,0.1c0.1,0,0.2,0,0.3,0c0.3,0,0.5,0,0.7,0c0.1,0,0.3,0,0.4,0c0.2,0,0.5,0,0.7-0.1
		c0.1,0,0.3,0,0.4-0.1c0.3,0,0.5-0.1,0.8-0.2c0.1,0,0.2,0,0.3-0.1c0.3-0.1,0.7-0.2,1-0.3c0.1,0,0.2-0.1,0.3-0.1
		c0.3-0.1,0.5-0.2,0.8-0.3c0.1-0.1,0.2-0.1,0.3-0.2c0.2-0.1,0.4-0.2,0.6-0.3c0.1-0.1,0.2-0.1,0.3-0.2c0.2-0.1,0.4-0.3,0.6-0.4
		c0.1-0.1,0.2-0.1,0.3-0.2c0.3-0.2,0.6-0.5,0.9-0.8c0.1-0.1,0.2-0.1,0.3-0.2c0,0,0.1,0,0.1,0c0.1,0,0.1-0.1,0.2-0.1c0,0,0.1,0,0.1,0
		c0.1,0,0.1,0,0.2-0.1c0,0,0.1,0,0.1,0c0.1,0,0.1,0,0.2,0c0,0,0,0,0,0c0.1,0,0.1,0,0.2,0c0,0,0.1,0,0.1,0c0.1,0,0.1,0,0.2,0
		c0,0,0.1,0,0.1,0c0.1,0,0.1,0.1,0.2,0.1c0,0,0.1,0,0.1,0c0.1,0.1,0.2,0.1,0.3,0.2c0.8,0.8,1.1,1.6,1,2.4c2.9-3.3,3.7-6.4,3.7-7.8
		c0.1-6.8-2.2-15-7-21.5C174,137.5,166.1,133.9,165.6,125.5z M138.4,160.8c-6.6-0.2-12.5-3.6-12.2-6.7c0-0.3,0.1-0.6,0.2-0.9
		c0-0.1,0.1-0.2,0.1-0.3c0.1-0.2,0.1-0.4,0.2-0.5c0.1-0.1,0.1-0.2,0.2-0.3c0.1-0.1,0.2-0.3,0.3-0.4c0.1-0.1,0.2-0.1,0.3-0.2
		c0.1-0.1,0.2-0.2,0.4-0.3c0.1-0.1,0.2-0.1,0.3-0.2c0.1-0.1,0.3-0.1,0.4-0.2c0.1,0,0.2-0.1,0.4-0.1c0.1,0,0.3-0.1,0.4-0.1
		c0.1,0,0.3,0,0.4-0.1c0.2,0,0.3,0,0.5-0.1c0.1,0,0.3,0,0.4,0c0.1,0,0.2,0,0.3,0c0.1,0,0.3,0,0.4,0c4.3,0.2,10.4,4.3,10.3,7
		C141.4,160,139.5,160.8,138.4,160.8z M171.7,167.4c-0.2,0-0.4,0-0.6,0c0,0,0,0,0,0c-0.1,0-0.2,0-0.3,0c-0.1,0-0.3,0-0.4,0
		c-0.1,0-0.2,0-0.3,0c-0.1,0-0.2,0-0.4-0.1c-0.1,0-0.2-0.1-0.3-0.1c-0.1,0-0.2-0.1-0.3-0.1c-0.1,0-0.2-0.1-0.3-0.1
		c-0.1,0-0.2-0.1-0.3-0.1c-0.1,0-0.2-0.1-0.3-0.1c-0.1-0.1-0.2-0.1-0.3-0.2c-0.1-0.1-0.2-0.1-0.3-0.2c-0.1-0.1-0.2-0.1-0.3-0.2
		c-0.1-0.1-0.2-0.1-0.2-0.2c-0.1-0.1-0.2-0.2-0.3-0.2c-0.1-0.1-0.2-0.1-0.2-0.2c-0.1-0.1-0.2-0.2-0.3-0.3c-0.1-0.1-0.1-0.1-0.2-0.2
		c-0.1-0.1-0.2-0.2-0.2-0.3c-0.1-0.1-0.1-0.2-0.2-0.2c-0.1-0.1-0.1-0.2-0.2-0.3c-0.1-0.1-0.1-0.2-0.2-0.3c-0.1-0.1-0.1-0.2-0.2-0.3
		c0-0.1-0.1-0.2-0.1-0.3c-0.1-0.1-0.1-0.2-0.1-0.3c0-0.1-0.1-0.2-0.1-0.3c0-0.1-0.1-0.3-0.1-0.4c0-0.1-0.1-0.2-0.1-0.3
		c0-0.1-0.1-0.3-0.1-0.4c0-0.1,0-0.1,0-0.2c0-0.2,0-0.4,0-0.7c0-0.1,0-0.2,0.1-0.4c0,0,0-0.1,0-0.1c0-0.1,0-0.2,0-0.2
		c0-0.1,0-0.1,0-0.2c0-0.1,0-0.2,0.1-0.2c0-0.1,0-0.1,0-0.2c0-0.1,0-0.1,0.1-0.2c0-0.1,0-0.1,0.1-0.2c0-0.1,0.1-0.1,0.1-0.2
		c0-0.1,0-0.1,0.1-0.2c0-0.1,0.1-0.1,0.1-0.2c0-0.1,0-0.1,0.1-0.2c0-0.1,0.1-0.1,0.1-0.2c0-0.1,0.1-0.1,0.1-0.2
		c0-0.1,0.1-0.1,0.1-0.2c0,0,0.1-0.1,0.1-0.1c0.1-0.1,0.1-0.1,0.2-0.2c0,0,0.1-0.1,0.1-0.1c0.1-0.1,0.2-0.2,0.3-0.3c0,0,0,0,0,0
		c0.1-0.1,0.2-0.1,0.3-0.2c0,0,0.1,0,0.1-0.1c0.1,0,0.2-0.1,0.2-0.1c0,0,0.1,0,0.2-0.1c0.1,0,0.2-0.1,0.2-0.1c0.1,0,0.1,0,0.2,0
		c0.1,0,0.2,0,0.3,0c0.1,0,0.1,0,0.2,0c0,0,0.1,0,0.1,0c0,0,0.1,0,0.1,0c0.2,0,0.4,0,0.7,0.1c3,0.6,7.6,0.2,7.9,5.1
		C176.9,164.9,174.9,167.1,171.7,167.4z"/>
</g>
</svg>
