<?xml version="1.0" encoding="UTF-8" standalone="no"?>
<svg
   xmlns:dc="http://purl.org/dc/elements/1.1/"
   xmlns:cc="http://creativecommons.org/ns#"
   xmlns:rdf="http://www.w3.org/1999/02/22-rdf-syntax-ns#"
   xmlns:svg="http://www.w3.org/2000/svg"
   xmlns="http://www.w3.org/2000/svg"
   xmlns:sodipodi="http://sodipodi.sourceforge.net/DTD/sodipodi-0.dtd"
   xmlns:inkscape="http://www.inkscape.org/namespaces/inkscape"
   version="1.1"
   width="260"
   height="268"
   id="svg5217"
   sodipodi:docname="snowrepeat.svg"
   inkscape:export-filename="../home/leafo/snowrepeat.html"
   inkscape:export-xdpi="107.46268"
   inkscape:export-ydpi="107.46268"
   inkscape:version="0.92.2 2405546, 2018-03-11">
  <metadata
     id="metadata5223">
    <rdf:RDF>
      <cc:Work
         rdf:about="">
        <dc:format>image/svg+xml</dc:format>
        <dc:type
           rdf:resource="http://purl.org/dc/dcmitype/StillImage" />
        <dc:title></dc:title>
      </cc:Work>
    </rdf:RDF>
  </metadata>
  <defs
     id="defs5221" />
  <sodipodi:namedview
     pagecolor="#ffffff"
     bordercolor="#00cc8a"
     borderopacity="1"
     objecttolerance="10"
     gridtolerance="10"
     guidetolerance="10"
     inkscape:pageopacity="0"
     inkscape:pageshadow="2"
     inkscape:window-width="1626"
     inkscape:window-height="833"
     id="namedview5219"
     showgrid="false"
     inkscape:showpageshadow="false"
     borderlayer="true"
     inkscape:zoom="0.81041066"
     inkscape:cx="89.538655"
     inkscape:cy="129.10436"
     inkscape:window-x="143"
     inkscape:window-y="1082"
     inkscape:window-maximized="0"
     inkscape:current-layer="svg5217" />
  <g
     style="font-family:none;mix-blend-mode:normal;fill:none;fill-rule:nonzero;stroke:#ffffff;stroke-width:2.66667008;stroke-linecap:round;stroke-linejoin:miter;stroke-miterlimit:10;stroke-dasharray:none;stroke-dashoffset:0;opacity:0.3"
     id="g3600"
     transform="translate(-81.45678,-84.006826)">
    <g
       id="g3548"
       style="">
      <line
         x1="200"
         y1="200"
         x2="200"
         y2="233.33333"
         id="line3540"
         style="" />
      <polyline
         points="196.50218,210.08224 200,206.58442 203.49782,210.08224"
         id="polyline3542"
         style="" />
      <polyline
         points="192.56959,220.38187 200,212.95146 207.43041,220.38187"
         id="polyline3544"
         style="" />
      <polyline
         points="192.61877,228.69061 200,221.30939 207.38123,228.69061"
         id="polyline3546"
         style="" />
    </g>
    <g
       id="g3558"
       style="">
      <line
         x1="200"
         y1="200"
         x2="171.13249"
         y2="216.66667"
         id="line3550"
         style="" />
      <polyline
         points="189.51961,202.01192 194.29772,203.29221 193.01743,208.07032"
         id="polyline3552"
         style="" />
      <polyline
         points="178.63358,203.75601 188.78371,206.47573 186.06399,216.62586"
         id="polyline3554"
         style="" />
      <polyline
         points="171.46258,207.95298 181.54553,210.65469 178.84381,220.73764"
         id="polyline3556"
         style="" />
    </g>
    <g
       id="g3568"
       style="">
      <line
         x1="200"
         y1="200"
         x2="171.13249"
         y2="183.33333"
         id="line3560"
         style="" />
      <polyline
         points="193.01743,191.92968 194.29772,196.70779 189.51961,197.98808"
         id="polyline3562"
         style="" />
      <polyline
         points="186.06399,183.37414 188.78371,193.52427 178.63358,196.24399"
         id="polyline3564"
         style="" />
      <polyline
         points="178.84381,179.26236 181.54553,189.34531 171.46258,192.04702"
         id="polyline3566"
         style="" />
    </g>
    <g
       id="g3578"
       style="">
      <line
         x1="200"
         y1="200"
         x2="200"
         y2="166.66667"
         id="line3570"
         style="" />
      <polyline
         points="203.49782,189.91776 200,193.41558 196.50218,189.91776"
         id="polyline3572"
         style="" />
      <polyline
         points="207.43041,179.61813 200,187.04854 192.56959,179.61813"
         id="polyline3574"
         style="" />
      <polyline
         points="207.38123,171.30939 200,178.69061 192.61877,171.30939"
         id="polyline3576"
         style="" />
    </g>
    <g
       id="g3588"
       style="">
      <line
         x1="200"
         y1="200"
         x2="228.86751"
         y2="183.33333"
         id="line3580"
         style="" />
      <polyline
         points="210.48039,197.98808 205.70228,196.70779 206.98257,191.92968"
         id="polyline3582"
         style="" />
      <polyline
         points="221.36642,196.24399 211.21629,193.52427 213.93601,183.37414"
         id="polyline3584"
         style="" />
      <polyline
         points="228.53742,192.04702 218.45447,189.34531 221.15619,179.26236"
         id="polyline3586"
         style="" />
    </g>
    <g
       id="g3598"
       style="">
      <line
         x1="200"
         y1="200"
         x2="228.86751"
         y2="216.66667"
         id="line3590"
         style="" />
      <polyline
         points="206.98257,208.07032 205.70228,203.29221 210.48039,202.01192"
         id="polyline3592"
         style="" />
      <polyline
         points="213.93601,216.62586 211.21629,206.47573 221.36642,203.75601"
         id="polyline3594"
         style="" />
      <polyline
         points="221.15619,220.73764 218.45447,210.65469 228.53742,207.95298"
         id="polyline3596"
         style="" />
    </g>
  </g>
  <g
     style="font-family:none;mix-blend-mode:normal;fill:none;fill-rule:nonzero;stroke:#ffffff;stroke-width:2.66667008;stroke-linecap:round;stroke-linejoin:miter;stroke-miterlimit:10;stroke-dasharray:none;stroke-dashoffset:0;opacity:0.3"
     id="g3662"
     transform="translate(-181.45678,-173.37816)">
    <g
       id="g3610"
       style="">
      <line
         x1="300"
         y1="200"
         x2="300"
         y2="233.33333"
         id="line3602"
         style="" />
      <polyline
         points="295.18061,210.74303 300,205.92364 304.81939,210.74303"
         id="polyline3604"
         style="" />
      <polyline
         points="295.46891,218.93221 300,214.40112 304.53109,218.93221"
         id="polyline3606"
         style="" />
      <polyline
         points="298.70457,225.64772 300,224.35228 301.29543,225.64772"
         id="polyline3608"
         style="" />
    </g>
    <g
       id="g3620"
       style="">
      <line
         x1="300"
         y1="200"
         x2="271.13248"
         y2="216.66667"
         id="line3612"
         style="" />
      <polyline
         points="288.28657,201.1978 294.86998,202.96182 293.10596,209.54523"
         id="polyline3614"
         style="" />
      <polyline
         points="281.33868,205.54207 287.52826,207.20056 285.86977,213.39014"
         id="polyline3616"
         style="" />
      <polyline
         points="277.14071,211.70198 278.9103,212.17614 278.43614,213.94574"
         id="polyline3618"
         style="" />
    </g>
    <g
       id="g3630"
       style="">
      <line
         x1="300"
         y1="200"
         x2="271.13248"
         y2="183.33333"
         id="line3622"
         style="" />
      <polyline
         points="293.10596,190.45477 294.86998,197.03818 288.28657,198.8022"
         id="polyline3624"
         style="" />
      <polyline
         points="285.86977,186.60986 287.52826,192.79944 281.33868,194.45793"
         id="polyline3626"
         style="" />
      <polyline
         points="278.43614,186.05426 278.9103,187.82386 277.14071,188.29802"
         id="polyline3628"
         style="" />
    </g>
    <g
       id="g3640"
       style="">
      <line
         x1="300"
         y1="200"
         x2="300"
         y2="166.66667"
         id="line3632"
         style="" />
      <polyline
         points="304.81939,189.25697 300,194.07636 295.18061,189.25697"
         id="polyline3634"
         style="" />
      <polyline
         points="304.53109,181.06779 300,185.59888 295.46891,181.06779"
         id="polyline3636"
         style="" />
      <polyline
         points="301.29543,174.35228 300,175.64772 298.70457,174.35228"
         id="polyline3638"
         style="" />
    </g>
    <g
       id="g3650"
       style="">
      <line
         x1="300"
         y1="200"
         x2="328.86752"
         y2="183.33333"
         id="line3642"
         style="" />
      <polyline
         points="311.71343,198.8022 305.13002,197.03818 306.89404,190.45477"
         id="polyline3644"
         style="" />
      <polyline
         points="318.66132,194.45793 312.47174,192.79944 314.13023,186.60986"
         id="polyline3646"
         style="" />
      <polyline
         points="322.85929,188.29802 321.0897,187.82386 321.56386,186.05426"
         id="polyline3648"
         style="" />
    </g>
    <g
       id="g3660"
       style="">
      <line
         x1="300"
         y1="200"
         x2="328.86752"
         y2="216.66667"
         id="line3652"
         style="" />
      <polyline
         points="306.89404,209.54523 305.13002,202.96182 311.71343,201.1978"
         id="polyline3654"
         style="" />
      <polyline
         points="314.13023,213.39014 312.47174,207.20056 318.66132,205.54207"
         id="polyline3656"
         style="" />
      <polyline
         points="321.56386,213.94574 321.0897,212.17614 322.85929,211.70198"
         id="polyline3658"
         style="" />
    </g>
  </g>
  <g
     style="font-family:none;mix-blend-mode:normal;fill:none;fill-rule:nonzero;stroke:#ffffff;stroke-width:2.66667008;stroke-linecap:round;stroke-linejoin:miter;stroke-miterlimit:10;stroke-dasharray:none;stroke-dashoffset:0;opacity:0.3"
     id="g4034"
     transform="translate(-168.10238,-156.00683)">
    <g
       id="g3982"
       style="">
      <line
         x1="200"
         y1="300"
         x2="200"
         y2="333.33334"
         id="line3974"
         style="" />
      <polyline
         points="189.57401,313.54633 200,303.12034 210.42599,313.54633"
         id="polyline3976"
         style="" />
      <polyline
         points="191.34103,320.99615 200,312.33718 208.65897,320.99615"
         id="polyline3978"
         style="" />
      <polyline
         points="195.08343,327.45828 200,322.54172 204.91657,327.45828"
         id="polyline3980"
         style="" />
    </g>
    <g
       id="g3992"
       style="">
      <line
         x1="200"
         y1="300"
         x2="171.13249"
         y2="316.66666"
         id="line3984"
         style="" />
      <polyline
         points="183.05554,297.74399 197.29771,301.56017 193.48153,315.80233"
         id="polyline3986"
         style="" />
      <polyline
         points="177.48732,302.99919 189.31569,306.16859 186.14628,317.99696"
         id="polyline3988"
         style="" />
      <polyline
         points="173.76215,309.47127 180.4783,311.27086 178.67871,317.98701"
         id="polyline3990"
         style="" />
    </g>
    <g
       id="g4002"
       style="">
      <line
         x1="200"
         y1="300"
         x2="171.13249"
         y2="283.33334"
         id="line3994"
         style="" />
      <polyline
         points="193.48153,284.19767 197.29771,298.43983 183.05554,302.25601"
         id="polyline3996"
         style="" />
      <polyline
         points="186.14628,282.00304 189.31569,293.83141 177.48732,297.00081"
         id="polyline3998"
         style="" />
      <polyline
         points="178.67871,282.01299 180.4783,288.72914 173.76215,290.52873"
         id="polyline4000"
         style="" />
    </g>
    <g
       id="g4012"
       style="">
      <line
         x1="200"
         y1="300"
         x2="200"
         y2="266.66666"
         id="line4004"
         style="" />
      <polyline
         points="210.42599,286.45367 200,296.87966 189.57401,286.45367"
         id="polyline4006"
         style="" />
      <polyline
         points="208.65897,279.00385 200,287.66282 191.34103,279.00385"
         id="polyline4008"
         style="" />
      <polyline
         points="204.91657,272.54172 200,277.45828 195.08343,272.54172"
         id="polyline4010"
         style="" />
    </g>
    <g
       id="g4022"
       style="">
      <line
         x1="200"
         y1="300"
         x2="228.86751"
         y2="283.33334"
         id="line4014"
         style="" />
      <polyline
         points="216.94446,302.25601 202.70229,298.43983 206.51847,284.19767"
         id="polyline4016"
         style="" />
      <polyline
         points="222.51268,297.00081 210.68431,293.83141 213.85372,282.00304"
         id="polyline4018"
         style="" />
      <polyline
         points="226.23785,290.52873 219.5217,288.72914 221.32129,282.01299"
         id="polyline4020"
         style="" />
    </g>
    <g
       id="g4032"
       style="">
      <line
         x1="200"
         y1="300"
         x2="228.86751"
         y2="316.66666"
         id="line4024"
         style="" />
      <polyline
         points="206.51847,315.80233 202.70229,301.56017 216.94446,297.74399"
         id="polyline4026"
         style="" />
      <polyline
         points="213.85372,317.99696 210.68431,306.16859 222.51268,302.99919"
         id="polyline4028"
         style="" />
      <polyline
         points="221.32129,317.98701 219.5217,311.27086 226.23785,309.47127"
         id="polyline4030"
         style="" />
    </g>
  </g>
  <g
     style="font-family:none;mix-blend-mode:normal;fill:none;fill-rule:nonzero;stroke:#ffffff;stroke-width:2.66667008;stroke-linecap:round;stroke-linejoin:miter;stroke-miterlimit:10;stroke-dasharray:none;stroke-dashoffset:0;opacity:0.3"
     id="g4158"
     transform="translate(-368.10238,-245.37816)">
    <g
       id="g4106"
       style="">
      <line
         x1="400"
         y1="300"
         x2="400"
         y2="333.33334"
         id="line4098"
         style="" />
      <polyline
         points="399.50347,308.5816 400,308.08507 400.49653,308.5816"
         id="polyline4100"
         style="" />
      <polyline
         points="395.33125,319.00104 400,314.33229 404.66875,319.00104"
         id="polyline4102"
         style="" />
      <polyline
         points="392.76458,328.61771 400,321.38229 407.23542,328.61771"
         id="polyline4104"
         style="" />
    </g>
    <g
       id="g4116"
       style="">
      <line
         x1="400"
         y1="300"
         x2="371.13248"
         y2="316.66666"
         id="line4108"
         style="" />
      <polyline
         points="392.31985,303.86079 392.99813,304.04253 392.81638,304.72081"
         id="polyline4110"
         style="" />
      <polyline
         points="381.21024,305.45727 387.58787,307.16615 385.87899,313.54377"
         id="polyline4112"
         style="" />
      <polyline
         points="371.59863,308.0428 381.48239,310.69115 378.83405,320.57491"
         id="polyline4114"
         style="" />
    </g>
    <g
       id="g4126"
       style="">
      <line
         x1="400"
         y1="300"
         x2="371.13248"
         y2="283.33334"
         id="line4118"
         style="" />
      <polyline
         points="392.81638,295.27919 392.99813,295.95747 392.31985,296.13921"
         id="polyline4120"
         style="" />
      <polyline
         points="385.87899,286.45623 387.58787,292.83385 381.21024,294.54273"
         id="polyline4122"
         style="" />
      <polyline
         points="378.83405,279.42509 381.48239,289.30885 371.59863,291.9572"
         id="polyline4124"
         style="" />
    </g>
    <g
       id="g4136"
       style="">
      <line
         x1="400"
         y1="300"
         x2="400"
         y2="266.66666"
         id="line4128"
         style="" />
      <polyline
         points="400.49653,291.4184 400,291.91493 399.50347,291.4184"
         id="polyline4130"
         style="" />
      <polyline
         points="404.66875,280.99896 400,285.66771 395.33125,280.99896"
         id="polyline4132"
         style="" />
      <polyline
         points="407.23542,271.38229 400,278.61771 392.76458,271.38229"
         id="polyline4134"
         style="" />
    </g>
    <g
       id="g4146"
       style="">
      <line
         x1="400"
         y1="300"
         x2="428.86752"
         y2="283.33334"
         id="line4138"
         style="" />
      <polyline
         points="407.68015,296.13921 407.00187,295.95747 407.18362,295.27919"
         id="polyline4140"
         style="" />
      <polyline
         points="418.78976,294.54273 412.41213,292.83385 414.12101,286.45623"
         id="polyline4142"
         style="" />
      <polyline
         points="428.40137,291.9572 418.51761,289.30885 421.16595,279.42509"
         id="polyline4144"
         style="" />
    </g>
    <g
       id="g4156"
       style="">
      <line
         x1="400"
         y1="300"
         x2="428.86752"
         y2="316.66666"
         id="line4148"
         style="" />
      <polyline
         points="407.18362,304.72081 407.00187,304.04253 407.68015,303.86079"
         id="polyline4150"
         style="" />
      <polyline
         points="414.12101,313.54377 412.41213,307.16615 418.78976,305.45727"
         id="polyline4152"
         style="" />
      <polyline
         points="421.16595,320.57491 418.51761,310.69115 428.40137,308.0428"
         id="polyline4154"
         style="" />
    </g>
  </g>
  <g
     transform="translate(5.18883,-308.00683)"
     id="g15110"
     style="font-family:none;mix-blend-mode:normal;fill:none;fill-rule:nonzero;stroke:#ffffff;stroke-width:2.66667008;stroke-linecap:round;stroke-linejoin:miter;stroke-miterlimit:10;stroke-dasharray:none;stroke-dashoffset:0;opacity:0.3">
    <g
       id="g15058"
       style="">
      <line
         id="line15050"
         y2="433.33334"
         x2="200"
         y1="400"
         x1="200"
         style="" />
      <polyline
         id="polyline15052"
         points="193.76806,411.4493 200,405.21736 206.23194,411.4493"
         style="" />
      <polyline
         id="polyline15054"
         points="192.04387,420.64473 200,412.6886 207.95613,420.64473"
         style="" />
      <polyline
         id="polyline15056"
         points="192.83666,428.58167 200,421.41833 207.16334,428.58167"
         style="" />
    </g>
    <g
       id="g15068"
       style="">
      <line
         id="line15060"
         y2="416.66666"
         x2="171.13249"
         y1="400"
         x1="200"
         style="" />
      <polyline
         id="polyline15062"
         points="186.96865,400.32764 195.48163,402.60868 193.20058,411.12167"
         style="" />
      <polyline
         id="polyline15064"
         points="178.14307,403.43216 189.01135,406.3443 186.0992,417.21258"
         style="" />
      <polyline
         id="polyline15066"
         points="171.66587,408.0872 181.45118,410.70916 178.82922,420.49447"
         style="" />
    </g>
    <g
       id="g15078"
       style="">
      <line
         id="line15070"
         y2="383.33334"
         x2="171.13249"
         y1="400"
         x1="200"
         style="" />
      <polyline
         id="polyline15072"
         points="193.20058,388.87833 195.48163,397.39132 186.96865,399.67236"
         style="" />
      <polyline
         id="polyline15074"
         points="186.0992,382.78742 189.01135,393.6557 178.14307,396.56784"
         style="" />
      <polyline
         id="polyline15076"
         points="178.82922,379.50553 181.45118,389.29084 171.66587,391.9128"
         style="" />
    </g>
    <g
       id="g15088"
       style="">
      <line
         id="line15080"
         y2="366.66666"
         x2="200"
         y1="400"
         x1="200"
         style="" />
      <polyline
         id="polyline15082"
         points="206.23194,388.5507 200,394.78264 193.76806,388.5507"
         style="" />
      <polyline
         id="polyline15084"
         points="207.95613,379.35527 200,387.3114 192.04387,379.35527"
         style="" />
      <polyline
         id="polyline15086"
         points="207.16334,371.41833 200,378.58167 192.83666,371.41833"
         style="" />
    </g>
    <g
       id="g15098"
       style="">
      <line
         id="line15090"
         y2="383.33334"
         x2="228.86751"
         y1="400"
         x1="200"
         style="" />
      <polyline
         id="polyline15092"
         points="213.03135,399.67236 204.51837,397.39132 206.79942,388.87833"
         style="" />
      <polyline
         id="polyline15094"
         points="221.85693,396.56784 210.98865,393.6557 213.9008,382.78742"
         style="" />
      <polyline
         id="polyline15096"
         points="228.33413,391.9128 218.54882,389.29084 221.17078,379.50553"
         style="" />
    </g>
    <g
       id="g15108"
       style="">
      <line
         id="line15100"
         y2="416.66666"
         x2="228.86751"
         y1="400"
         x1="200"
         style="" />
      <polyline
         id="polyline15102"
         points="206.79942,411.12167 204.51837,402.60868 213.03135,400.32764"
         style="" />
      <polyline
         id="polyline15104"
         points="213.9008,417.21258 210.98865,406.3443 221.85693,403.43216"
         style="" />
      <polyline
         id="polyline15106"
         points="221.17078,420.49447 218.54882,410.70916 228.33413,408.0872"
         style="" />
    </g>
  </g>
  <g
     transform="translate(-94.811175,-397.37816)"
     id="g15172"
     style="font-family:none;mix-blend-mode:normal;fill:none;fill-rule:nonzero;stroke:#ffffff;stroke-width:2.66667008;stroke-linecap:round;stroke-linejoin:miter;stroke-miterlimit:10;stroke-dasharray:none;stroke-dashoffset:0;opacity:0.3">
    <g
       id="g15120"
       style="">
      <line
         id="line15112"
         y2="433.33334"
         x2="300"
         y1="400"
         x1="300"
         style="" />
      <polyline
         id="polyline15114"
         points="295.74683,410.45992 300,406.20675 304.25317,410.45992"
         style="" />
      <polyline
         id="polyline15116"
         points="291.63465,420.84934 300,412.48399 308.36535,420.84934"
         style="" />
      <polyline
         id="polyline15118"
         points="293.44524,428.27738 300,421.72262 306.55476,428.27738"
         style="" />
    </g>
    <g
       id="g15130"
       style="">
      <line
         id="line15122"
         y2="416.66666"
         x2="271.13248"
         y1="400"
         x1="300"
         style="" />
      <polyline
         id="polyline15124"
         points="288.81486,401.5466 294.6248,403.10337 293.06803,408.91332"
         style="" />
      <polyline
         id="polyline15126"
         points="277.76126,403.18006 289.18855,406.242 286.12662,417.66928"
         style="" />
      <polyline
         id="polyline15128"
         points="272.23369,408.4621 281.18766,410.86131 278.78845,419.81528"
         style="" />
    </g>
    <g
       id="g15140"
       style="">
      <line
         id="line15132"
         y2="383.33334"
         x2="271.13248"
         y1="400"
         x1="300"
         style="" />
      <polyline
         id="polyline15134"
         points="293.06803,391.08668 294.6248,396.89663 288.81486,398.4534"
         style="" />
      <polyline
         id="polyline15136"
         points="286.12662,382.33072 289.18855,393.758 277.76126,396.81994"
         style="" />
      <polyline
         id="polyline15138"
         points="278.78845,380.18472 281.18766,389.13869 272.23369,391.5379"
         style="" />
    </g>
    <g
       id="g15150"
       style="">
      <line
         id="line15142"
         y2="366.66666"
         x2="300"
         y1="400"
         x1="300"
         style="" />
      <polyline
         id="polyline15144"
         points="304.25317,389.54008 300,393.79325 295.74683,389.54008"
         style="" />
      <polyline
         id="polyline15146"
         points="308.36535,379.15066 300,387.51601 291.63465,379.15066"
         style="" />
      <polyline
         id="polyline15148"
         points="306.55476,371.72262 300,378.27738 293.44524,371.72262"
         style="" />
    </g>
    <g
       id="g15160"
       style="">
      <line
         id="line15152"
         y2="383.33334"
         x2="328.86752"
         y1="400"
         x1="300"
         style="" />
      <polyline
         id="polyline15154"
         points="311.18514,398.4534 305.3752,396.89663 306.93197,391.08668"
         style="" />
      <polyline
         id="polyline15156"
         points="322.23874,396.81994 310.81145,393.758 313.87338,382.33072"
         style="" />
      <polyline
         id="polyline15158"
         points="327.76631,391.5379 318.81234,389.13869 321.21155,380.18472"
         style="" />
    </g>
    <g
       id="g15170"
       style="">
      <line
         id="line15162"
         y2="416.66666"
         x2="328.86752"
         y1="400"
         x1="300"
         style="" />
      <polyline
         id="polyline15164"
         points="306.93197,408.91332 305.3752,403.10337 311.18514,401.5466"
         style="" />
      <polyline
         id="polyline15166"
         points="313.87338,417.66928 310.81145,406.242 322.23874,403.18006"
         style="" />
      <polyline
         id="polyline15168"
         points="321.21155,419.81528 318.81234,410.86131 327.76631,408.4621"
         style="" />
    </g>
  </g>
  <g
     style="font-family:none;mix-blend-mode:normal;fill:none;fill-rule:nonzero;stroke:#ffffff;stroke-width:2.66667008;stroke-linecap:round;stroke-linejoin:miter;stroke-miterlimit:10;stroke-dasharray:none;stroke-dashoffset:0;opacity:0.3"
     id="g15358"
     transform="translate(-181.45678,94.73585)">
    <g
       id="g15306"
       style="">
      <line
         x1="300"
         y1="200"
         x2="300"
         y2="233.33333"
         id="line15298"
         style="" />
      <polyline
         points="295.18061,210.74303 300,205.92364 304.81939,210.74303"
         id="polyline15300"
         style="" />
      <polyline
         points="295.46891,218.93221 300,214.40112 304.53109,218.93221"
         id="polyline15302"
         style="" />
      <polyline
         points="298.70457,225.64772 300,224.35228 301.29543,225.64772"
         id="polyline15304"
         style="" />
    </g>
    <g
       id="g15316"
       style="">
      <line
         x1="300"
         y1="200"
         x2="271.13248"
         y2="216.66667"
         id="line15308"
         style="" />
      <polyline
         points="288.28657,201.1978 294.86998,202.96182 293.10596,209.54523"
         id="polyline15310"
         style="" />
      <polyline
         points="281.33868,205.54207 287.52826,207.20056 285.86977,213.39014"
         id="polyline15312"
         style="" />
      <polyline
         points="277.14071,211.70198 278.9103,212.17614 278.43614,213.94574"
         id="polyline15314"
         style="" />
    </g>
    <g
       id="g15326"
       style="">
      <line
         x1="300"
         y1="200"
         x2="271.13248"
         y2="183.33333"
         id="line15318"
         style="" />
      <polyline
         points="293.10596,190.45477 294.86998,197.03818 288.28657,198.8022"
         id="polyline15320"
         style="" />
      <polyline
         points="285.86977,186.60986 287.52826,192.79944 281.33868,194.45793"
         id="polyline15322"
         style="" />
      <polyline
         points="278.43614,186.05426 278.9103,187.82386 277.14071,188.29802"
         id="polyline15324"
         style="" />
    </g>
    <g
       id="g15336"
       style="">
      <line
         x1="300"
         y1="200"
         x2="300"
         y2="166.66667"
         id="line15328"
         style="" />
      <polyline
         points="304.81939,189.25697 300,194.07636 295.18061,189.25697"
         id="polyline15330"
         style="" />
      <polyline
         points="304.53109,181.06779 300,185.59888 295.46891,181.06779"
         id="polyline15332"
         style="" />
      <polyline
         points="301.29543,174.35228 300,175.64772 298.70457,174.35228"
         id="polyline15334"
         style="" />
    </g>
    <g
       id="g15346"
       style="">
      <line
         x1="300"
         y1="200"
         x2="328.86752"
         y2="183.33333"
         id="line15338"
         style="" />
      <polyline
         points="311.71343,198.8022 305.13002,197.03818 306.89404,190.45477"
         id="polyline15340"
         style="" />
      <polyline
         points="318.66132,194.45793 312.47174,192.79944 314.13023,186.60986"
         id="polyline15342"
         style="" />
      <polyline
         points="322.85929,188.29802 321.0897,187.82386 321.56386,186.05426"
         id="polyline15344"
         style="" />
    </g>
    <g
       id="g15356"
       style="">
      <line
         x1="300"
         y1="200"
         x2="328.86752"
         y2="216.66667"
         id="line15348"
         style="" />
      <polyline
         points="306.89404,209.54523 305.13002,202.96182 311.71343,201.1978"
         id="polyline15350"
         style="" />
      <polyline
         points="314.13023,213.39014 312.47174,207.20056 318.66132,205.54207"
         id="polyline15352"
         style="" />
      <polyline
         points="321.56386,213.94574 321.0897,212.17614 322.85929,211.70198"
         id="polyline15354"
         style="" />
    </g>
  </g>
  <g
     style="font-family:none;mix-blend-mode:normal;fill:none;fill-rule:nonzero;stroke:#ffffff;stroke-width:2.66667008;stroke-linecap:round;stroke-linejoin:miter;stroke-miterlimit:10;stroke-dasharray:none;stroke-dashoffset:0;opacity:0.3"
     id="g15544"
     transform="translate(-268.10238,-66.635489)">
    <g
       id="g15492"
       style="">
      <line
         x1="300"
         y1="300"
         x2="300"
         y2="333.33334"
         id="line15484"
         style="" />
      <polyline
         points="290.76343,312.95162 300,303.71505 309.23657,312.95162"
         id="polyline15486"
         style="" />
      <polyline
         points="296.45602,318.43866 300,314.89467 303.54398,318.43866"
         id="polyline15488"
         style="" />
      <polyline
         points="290.82509,329.58745 300,320.41255 309.17491,329.58745"
         id="polyline15490"
         style="" />
    </g>
    <g
       id="g15502"
       style="">
      <line
         x1="300"
         y1="300"
         x2="271.13248"
         y2="316.66666"
         id="line15494"
         style="" />
      <polyline
         points="284.16529,298.47671 296.78267,301.85752 293.40185,314.47491"
         id="polyline15496"
         style="" />
      <polyline
         points="282.25966,306.15015 287.10083,307.44734 285.80365,312.28851"
         id="polyline15498"
         style="" />
      <polyline
         points="269.78906,306.84802 282.32222,310.20627 278.96397,322.73943"
         id="polyline15500"
         style="" />
    </g>
    <g
       id="g15512"
       style="">
      <line
         x1="300"
         y1="300"
         x2="271.13248"
         y2="283.33334"
         id="line15504"
         style="" />
      <polyline
         points="293.40185,285.52509 296.78267,298.14248 284.16529,301.52329"
         id="polyline15506"
         style="" />
      <polyline
         points="285.80365,287.71149 287.10083,292.55266 282.25966,293.84985"
         id="polyline15508"
         style="" />
      <polyline
         points="278.96397,277.26057 282.32222,289.79373 269.78906,293.15198"
         id="polyline15510"
         style="" />
    </g>
    <g
       id="g15522"
       style="">
      <line
         x1="300"
         y1="300"
         x2="300"
         y2="266.66666"
         id="line15514"
         style="" />
      <polyline
         points="309.23657,287.04838 300,296.28495 290.76343,287.04838"
         id="polyline15516"
         style="" />
      <polyline
         points="303.54398,281.56134 300,285.10533 296.45602,281.56134"
         id="polyline15518"
         style="" />
      <polyline
         points="309.17491,270.41255 300,279.58745 290.82509,270.41255"
         id="polyline15520"
         style="" />
    </g>
    <g
       id="g15532"
       style="">
      <line
         x1="300"
         y1="300"
         x2="328.86752"
         y2="283.33334"
         id="line15524"
         style="" />
      <polyline
         points="315.83471,301.52329 303.21733,298.14248 306.59815,285.52509"
         id="polyline15526"
         style="" />
      <polyline
         points="317.74034,293.84985 312.89917,292.55266 314.19635,287.71149"
         id="polyline15528"
         style="" />
      <polyline
         points="330.21094,293.15198 317.67778,289.79373 321.03603,277.26057"
         id="polyline15530"
         style="" />
    </g>
    <g
       id="g15542"
       style="">
      <line
         x1="300"
         y1="300"
         x2="328.86752"
         y2="316.66666"
         id="line15534"
         style="" />
      <polyline
         points="306.59815,314.47491 303.21733,301.85752 315.83471,298.47671"
         id="polyline15536"
         style="" />
      <polyline
         points="314.19635,312.28851 312.89917,307.44734 317.74034,306.15015"
         id="polyline15538"
         style="" />
      <polyline
         points="321.03603,322.73943 317.67778,310.20627 330.21094,306.84802"
         id="polyline15540"
         style="" />
    </g>
  </g>
  <g
     style="font-family:none;mix-blend-mode:normal;fill:none;fill-rule:nonzero;stroke:#ffffff;stroke-width:2.66667008;stroke-linecap:round;stroke-linejoin:miter;stroke-miterlimit:10;stroke-dasharray:none;stroke-dashoffset:0;opacity:0.3"
     id="g15792"
     transform="translate(-281.45678,-194.63549)">
    <g
       id="g15740"
       style="">
      <line
         x1="400"
         y1="400"
         x2="400"
         y2="433.33334"
         id="line15732"
         style="" />
      <polyline
         points="396.46671,410.09998 400,406.56669 403.53329,410.09998"
         id="polyline15734"
         style="" />
      <polyline
         points="399.00134,417.16599 400,416.16734 400.99866,417.16599"
         id="polyline15736"
         style="" />
      <polyline
         points="391.89137,429.05432 400,420.94568 408.10863,429.05432"
         id="polyline15738"
         style="" />
    </g>
    <g
       id="g15750"
       style="">
      <line
         x1="400"
         y1="400"
         x2="371.13248"
         y2="416.66666"
         id="line15742"
         style="" />
      <polyline
         points="389.48652,401.99007 394.31308,403.28334 393.01981,408.10991"
         id="polyline15744"
         style="" />
      <polyline
         points="384.63449,407.71814 385.99867,408.08367 385.63314,409.44786"
         id="polyline15746"
         style="" />
      <polyline
         points="370.78391,407.50488 381.8605,410.47284 378.89254,421.54944"
         id="polyline15748"
         style="" />
    </g>
    <g
       id="g15760"
       style="">
      <line
         x1="400"
         y1="400"
         x2="371.13248"
         y2="383.33334"
         id="line15752"
         style="" />
      <polyline
         points="393.01981,391.89009 394.31308,396.71666 389.48652,398.00993"
         id="polyline15754"
         style="" />
      <polyline
         points="385.63314,390.55214 385.99867,391.91633 384.63449,392.28186"
         id="polyline15756"
         style="" />
      <polyline
         points="378.89254,378.45056 381.8605,389.52716 370.78391,392.49512"
         id="polyline15758"
         style="" />
    </g>
    <g
       id="g15770"
       style="">
      <line
         x1="400"
         y1="400"
         x2="400"
         y2="366.66666"
         id="line15762"
         style="" />
      <polyline
         points="403.53329,389.90002 400,393.43331 396.46671,389.90002"
         id="polyline15764"
         style="" />
      <polyline
         points="400.99866,382.83401 400,383.83266 399.00134,382.83401"
         id="polyline15766"
         style="" />
      <polyline
         points="408.10863,370.94568 400,379.05432 391.89137,370.94568"
         id="polyline15768"
         style="" />
    </g>
    <g
       id="g15780"
       style="">
      <line
         x1="400"
         y1="400"
         x2="428.86752"
         y2="383.33334"
         id="line15772"
         style="" />
      <polyline
         points="410.51348,398.00993 405.68692,396.71666 406.98019,391.89009"
         id="polyline15774"
         style="" />
      <polyline
         points="415.36551,392.28186 414.00133,391.91633 414.36686,390.55214"
         id="polyline15776"
         style="" />
      <polyline
         points="429.21609,392.49512 418.1395,389.52716 421.10746,378.45056"
         id="polyline15778"
         style="" />
    </g>
    <g
       id="g15790"
       style="">
      <line
         x1="400"
         y1="400"
         x2="428.86752"
         y2="416.66666"
         id="line15782"
         style="" />
      <polyline
         points="406.98019,408.10991 405.68692,403.28334 410.51348,401.99007"
         id="polyline15784"
         style="" />
      <polyline
         points="414.36686,409.44786 414.00133,408.08367 415.36551,407.71814"
         id="polyline15786"
         style="" />
      <polyline
         points="421.10746,421.54944 418.1395,410.47284 429.21609,407.50488"
         id="polyline15788"
         style="" />
    </g>
  </g>
  <g
     transform="translate(-194.81117,-18.63549)"
     id="g15978"
     style="font-family:none;mix-blend-mode:normal;fill:none;fill-rule:nonzero;stroke:#ffffff;stroke-width:2.66667008;stroke-linecap:round;stroke-linejoin:miter;stroke-miterlimit:10;stroke-dasharray:none;stroke-dashoffset:0;opacity:0.3">
    <g
       id="g15926"
       style="">
      <line
         id="line15918"
         y2="233.33333"
         x2="400"
         y1="200"
         x1="400"
         style="" />
      <polyline
         id="polyline15920"
         points="398.50683,209.07992 400,207.58675 401.49317,209.07992"
         style="" />
      <polyline
         id="polyline15922"
         points="397.34639,217.99347 400,215.33986 402.65361,217.99347"
         style="" />
      <polyline
         id="polyline15924"
         points="388.93854,230.53073 400,219.46927 411.06146,230.53073"
         style="" />
    </g>
    <g
       id="g15936"
       style="">
      <line
         id="line15928"
         y2="216.66667"
         x2="371.13248"
         y1="200"
         x1="400"
         style="" />
      <polyline
         id="polyline15930"
         points="391.38998,203.24684 393.42968,203.79337 392.88314,205.83308"
         style="" />
      <polyline
         id="polyline15932"
         points="383.09039,206.69864 386.71529,207.66993 385.744,211.29483"
         style="" />
      <polyline
         id="polyline15934"
         points="368.02888,205.68586 383.13912,209.73464 379.09034,224.84487"
         style="" />
    </g>
    <g
       id="g15946"
       style="">
      <line
         id="line15938"
         y2="183.33333"
         x2="371.13248"
         y1="200"
         x1="400"
         style="" />
      <polyline
         id="polyline15940"
         points="392.88314,194.16692 393.42968,196.20663 391.38998,196.75316"
         style="" />
      <polyline
         id="polyline15942"
         points="385.744,188.70517 386.71529,192.33007 383.09039,193.30136"
         style="" />
      <polyline
         id="polyline15944"
         points="379.09034,175.15513 383.13912,190.26536 368.02888,194.31414"
         style="" />
    </g>
    <g
       id="g15956"
       style="">
      <line
         id="line15948"
         y2="166.66667"
         x2="400"
         y1="200"
         x1="400"
         style="" />
      <polyline
         id="polyline15950"
         points="401.49317,190.92008 400,192.41325 398.50683,190.92008"
         style="" />
      <polyline
         id="polyline15952"
         points="402.65361,182.00653 400,184.66014 397.34639,182.00653"
         style="" />
      <polyline
         id="polyline15954"
         points="411.06146,169.46927 400,180.53073 388.93854,169.46927"
         style="" />
    </g>
    <g
       id="g15966"
       style="">
      <line
         id="line15958"
         y2="183.33333"
         x2="428.86752"
         y1="200"
         x1="400"
         style="" />
      <polyline
         id="polyline15960"
         points="408.61002,196.75316 406.57032,196.20663 407.11686,194.16692"
         style="" />
      <polyline
         id="polyline15962"
         points="416.90961,193.30136 413.28471,192.33007 414.256,188.70517"
         style="" />
      <polyline
         id="polyline15964"
         points="431.97112,194.31414 416.86088,190.26536 420.90966,175.15513"
         style="" />
    </g>
    <g
       id="g15976"
       style="">
      <line
         id="line15968"
         y2="216.66667"
         x2="428.86752"
         y1="200"
         x1="400"
         style="" />
      <polyline
         id="polyline15970"
         points="407.11686,205.83308 406.57032,203.79337 408.61002,203.24684"
         style="" />
      <polyline
         id="polyline15972"
         points="414.256,211.29483 413.28471,207.66993 416.90961,206.69864"
         style="" />
      <polyline
         id="polyline15974"
         points="420.90966,224.84487 416.86088,209.73464 431.97112,205.68586"
         style="" />
    </g>
  </g>
  <g
     transform="translate(-94.811175,-129.26415)"
     id="g16288"
     style="font-family:none;mix-blend-mode:normal;fill:none;fill-rule:nonzero;stroke:#ffffff;stroke-width:2.66667008;stroke-linecap:round;stroke-linejoin:miter;stroke-miterlimit:10;stroke-dasharray:none;stroke-dashoffset:0;opacity:0.3">
    <g
       id="g16236"
       style="">
      <line
         id="line16228"
         y2="433.33334"
         x2="300"
         y1="400"
         x1="300"
         style="" />
      <polyline
         id="polyline16230"
         points="295.74683,410.45992 300,406.20675 304.25317,410.45992"
         style="" />
      <polyline
         id="polyline16232"
         points="291.63465,420.84934 300,412.48399 308.36535,420.84934"
         style="" />
      <polyline
         id="polyline16234"
         points="293.44524,428.27738 300,421.72262 306.55476,428.27738"
         style="" />
    </g>
    <g
       id="g16246"
       style="">
      <line
         id="line16238"
         y2="416.66666"
         x2="271.13248"
         y1="400"
         x1="300"
         style="" />
      <polyline
         id="polyline16240"
         points="288.81486,401.5466 294.6248,403.10337 293.06803,408.91332"
         style="" />
      <polyline
         id="polyline16242"
         points="277.76126,403.18006 289.18855,406.242 286.12662,417.66928"
         style="" />
      <polyline
         id="polyline16244"
         points="272.23369,408.4621 281.18766,410.86131 278.78845,419.81528"
         style="" />
    </g>
    <g
       id="g16256"
       style="">
      <line
         id="line16248"
         y2="383.33334"
         x2="271.13248"
         y1="400"
         x1="300"
         style="" />
      <polyline
         id="polyline16250"
         points="293.06803,391.08668 294.6248,396.89663 288.81486,398.4534"
         style="" />
      <polyline
         id="polyline16252"
         points="286.12662,382.33072 289.18855,393.758 277.76126,396.81994"
         style="" />
      <polyline
         id="polyline16254"
         points="278.78845,380.18472 281.18766,389.13869 272.23369,391.5379"
         style="" />
    </g>
    <g
       id="g16266"
       style="">
      <line
         id="line16258"
         y2="366.66666"
         x2="300"
         y1="400"
         x1="300"
         style="" />
      <polyline
         id="polyline16260"
         points="304.25317,389.54008 300,393.79325 295.74683,389.54008"
         style="" />
      <polyline
         id="polyline16262"
         points="308.36535,379.15066 300,387.51601 291.63465,379.15066"
         style="" />
      <polyline
         id="polyline16264"
         points="306.55476,371.72262 300,378.27738 293.44524,371.72262"
         style="" />
    </g>
    <g
       id="g16276"
       style="">
      <line
         id="line16268"
         y2="383.33334"
         x2="328.86752"
         y1="400"
         x1="300"
         style="" />
      <polyline
         id="polyline16270"
         points="311.18514,398.4534 305.3752,396.89663 306.93197,391.08668"
         style="" />
      <polyline
         id="polyline16272"
         points="322.23874,396.81994 310.81145,393.758 313.87338,382.33072"
         style="" />
      <polyline
         id="polyline16274"
         points="327.76631,391.5379 318.81234,389.13869 321.21155,380.18472"
         style="" />
    </g>
    <g
       id="g16286"
       style="">
      <line
         id="line16278"
         y2="416.66666"
         x2="328.86752"
         y1="400"
         x1="300"
         style="" />
      <polyline
         id="polyline16280"
         points="306.93197,408.91332 305.3752,403.10337 311.18514,401.5466"
         style="" />
      <polyline
         id="polyline16282"
         points="313.87338,417.66928 310.81145,406.242 322.23874,403.18006"
         style="" />
      <polyline
         id="polyline16284"
         points="321.21155,419.81528 318.81234,410.86131 327.76631,408.4621"
         style="" />
    </g>
  </g>
</svg>
