<svg xmlns="http://www.w3.org/2000/svg" viewBox="0 0 454.93066 150.776" height="150.776" width="454.931"><path d="M444.54 51.99l-18.195-18.194h-33.8v-23.4h-28.6v106.587h28.6V62.387h23.394v54.596h28.6zm-90.988-18.194h-44.195L291.16 51.99v46.79l18.197 18.203h44.195V88.39h-33.8V62.386h33.8zm-72.792 0h-23.393v-23.4h-28.602V98.78l18.2 18.203h33.795V88.39h-23.393V62.386h23.393zm-62.393-23.4h-28.594V23.4h28.594zm0 23.4h-28.594v83.185h28.594zm-38.992 0H150.78V88.39h-10.397V33.795h-28.598V88.39H101.39V33.795h-28.6v83.187h88.39l18.195-18.202zm-116.984 0H38.997v-23.4H10.4V98.78l18.197 18.203H62.39V88.39H38.997V62.386H62.39zM454.93 46.79v77.987l-38.99 26h-25.996v-13.004l-18.197 13.003h-23.394v-13.003l-12.994 13.003h-41.597l-13.003-13.003-2.603 13.003h-36.39l-14.88-13.003-.834 13.003h-41.246l-1.46-13.003-11.164 13.003h-63l-13-5.2v5.2H62.39l-38.995-23.403L0 103.988V0h49.396L72.79 23.4h106.585V0h88.386v23.4h23.4v12.993l13-12.994h25.992l23.4-23.4h49.392v23.4h28.597z" fill-rule="evenodd" fill="#fff"/></svg>